<?xml version="1.0" encoding="utf-8"?>
<!-- Generator: Adobe Illustrator 24.1.2, SVG Export Plug-In . SVG Version: 6.00 Build 0)  -->
<svg version="1.1" id="Layer_1" xmlns="http://www.w3.org/2000/svg" xmlns:xlink="http://www.w3.org/1999/xlink" x="0px" y="0px"
	 viewBox="0 0 1596.8 1503.8" style="enable-background:new 0 0 1596.8 1503.8;" xml:space="preserve">
<style type="text/css">
	.st0{fill:#05101F;}
	.st1{fill-rule:evenodd;clip-rule:evenodd;fill:#62558F;}
	.st2{fill-rule:evenodd;clip-rule:evenodd;fill:#E48026;}
	.st3{fill-rule:evenodd;clip-rule:evenodd;fill:#FCBE75;}
	.st4{fill-rule:evenodd;clip-rule:evenodd;fill:#81E6D9;}
	.st5{fill-rule:evenodd;clip-rule:evenodd;fill:#F05F22;}
	.st6{fill-rule:evenodd;clip-rule:evenodd;fill:#E14825;}
	.st7{fill-rule:evenodd;clip-rule:evenodd;fill:#BF3425;}
	.st8{fill:none;stroke:#FFFFFF;stroke-width:31.311;stroke-miterlimit:10;}
</style>
<rect y="-0.7" class="st0" width="1596.8" height="1504.6"/>
<path class="st1" d="M257.7,648.2c0,0-0.6-5.2-3.3-6.2c-2.7-0.9-4-0.8-5.7,0.5s-2.3,5.1-1.1,8.2c0.7,2.4,2.8,3.9,5.1,3.7
	c1.5-0.2,1.9-0.1,2.8-0.8C256.4,653,258,650,257.7,648.2z M1596.8,976.3v15.5c-0.8-0.3-1.5-0.7-2.1-1.2c-2.1-1.7-2.8-6.3-1.4-10.2
	C1593.8,978.6,1595.1,977.1,1596.8,976.3L1596.8,976.3z M1277.1,1500.5h-6.5c0.1-0.3,0.1-0.6,0.3-0.9c0.5-1.5,1.8-2.4,3.2-2.3
	c0.9,0.1,1.2,0.1,1.8,0.5C1276.5,1498.5,1276.9,1499.5,1277.1,1500.5L1277.1,1500.5z M237.3,1500.5h-6.7c1.8-1.2,3.4-1.2,6.4-0.1
	L237.3,1500.5z M-1,1183v-0.9C-0.9,1182.4-0.9,1182.7-1,1183z M-1,96.3v-1C-0.9,95.6-0.9,95.9-1,96.3z M1258.8,595.7
	c0,0-0.6,5.2-3.3,6.2s-4,0.8-5.7-0.5s-2.3-5.1-1.1-8.2c0.7-2.4,2.8-3.9,5.1-3.8c1.5,0.2,1.9,0.1,2.8,0.8
	C1257.5,590.9,1259.1,593.9,1258.8,595.7z M1303.5,476.3c0,0-1.1,9.5-6,11.3s-7.3,1.5-10.5-1s-4.1-9.3-2.1-15s6.7-7.2,9.4-6.9
	s3.6,0.1,5.2,1.5C1301.1,467.5,1304.1,473.1,1303.5,476.3L1303.5,476.3z M1276.4,193.6c0,0-1.1,9.6-6,11.3s-7.3,1.5-10.5-1
	s-4.1-9.3-2.1-15.1s6.7-7.2,9.3-6.9s3.6,0.1,5.2,1.5C1274,184.7,1277.1,190.3,1276.4,193.6L1276.4,193.6z M1264.8,161.8
	c0,0-0.8,6.5-4.1,7.6c-3.3,1.2-5,1-7.1-0.7s-2.8-6.3-1.4-10.2c0.9-3,3.5-4.9,6.4-4.6c1.8,0.2,2.4,0.1,3.5,1
	C1263.2,155.8,1265.3,159.6,1264.8,161.8L1264.8,161.8z M1165.2,247.2c0,0-0.8,6.5-4.1,7.6c-3.3,1.2-5,1-7.1-0.7s-2.8-6.3-1.4-10.2
	c0.9-3,3.5-4.9,6.4-4.6c1.8,0.2,2.4,0.1,3.5,1S1165.7,245,1165.2,247.2L1165.2,247.2z M1120.7,68.3c0,0-1,6-5.5,7.1
	s-6.7,0.9-9.5-0.6s-3.7-5.9-1.8-9.5c1.9-3.6,6.1-4.5,8.5-4.3s3.2,0.1,4.7,0.9S1121.3,66.2,1120.7,68.3L1120.7,68.3z M827.7,251.7
	c0,0-0.8,6.5-4.1,7.6c-3.3,1.2-5,1-7.1-0.7s-2.8-6.3-1.4-10.2c0.9-3,3.5-4.9,6.4-4.6c1.8,0.2,2.4,0.1,3.5,1S828.2,249.5,827.7,251.7
	L827.7,251.7z M841,297.4c0,0-0.4,3.2-2,3.8s-2.5,0.5-3.5-0.3c-1.1-0.8-1.4-3.1-0.7-5.1c0.5-1.5,1.8-2.4,3.2-2.3
	c0.9,0.1,1.2,0,1.8,0.5C840.2,294.4,841.2,296.2,841,297.4L841,297.4z M824.5,214.7c0,0-0.4,3.2-2,3.8s-2.5,0.5-3.5-0.3
	c-1.1-0.8-1.4-3.1-0.7-5.1c0.5-1.5,1.8-2.4,3.2-2.3c0.9,0.1,1.2,0,1.7,0.5S824.7,213.6,824.5,214.7L824.5,214.7z M1237.2,323
	c0,0-0.4,3.2-2,3.8c-1.7,0.6-2.5,0.5-3.5-0.3c-1.1-0.8-1.4-3.1-0.7-5.1c0.5-1.5,1.8-2.4,3.2-2.3c0.9,0.1,1.2,0,1.8,0.5
	C1236.3,320.1,1237.4,321.9,1237.2,323z M1314.5,328c0,0-0.4,3.2-2,3.8c-1.7,0.6-2.5,0.5-3.5-0.3c-1.1-0.8-1.4-3.1-0.7-5.1
	c0.5-1.5,1.8-2.4,3.2-2.3c0.9,0.1,1.2,0,1.8,0.5C1313.7,325.1,1314.7,326.9,1314.5,328z M1277.1,414.5c0,0-0.4,3.2-2,3.8
	c-1.7,0.6-2.5,0.5-3.5-0.3s-1.4-3.1-0.7-5.1c0.5-1.5,1.8-2.4,3.2-2.3c0.9,0.1,1.2,0,1.8,0.5S1277.4,413.4,1277.1,414.5L1277.1,414.5
	z M987.7,380.4c0,0-0.8,6.5-4.1,7.6s-5,1-7.1-0.7s-2.8-6.3-1.4-10.2c0.9-3,3.5-4.9,6.4-4.6c1.8,0.2,2.4,0.1,3.5,1
	S988.2,378.2,987.7,380.4L987.7,380.4z M1045.6,299.8c0,0-0.4,3.2-2,3.8s-2.5,0.5-3.5-0.3s-1.4-3.1-0.7-5.1c0.5-1.5,1.8-2.4,3.2-2.3
	c0.9,0.1,1.2,0,1.7,0.5S1045.8,298.8,1045.6,299.8z M933.4,498.9c0,0-0.4,3.2-2,3.8s-2.5,0.5-3.5-0.3c-1.1-0.8-1.4-3.1-0.7-5.1
	c0.5-1.5,1.8-2.4,3.2-2.3c0.9,0.1,1.2,0,1.8,0.5C932.6,496,933.6,497.8,933.4,498.9L933.4,498.9z M1137.8,538.6c0,0-0.4,3.2-2,3.8
	c-1.7,0.6-2.5,0.5-3.5-0.3s-1.4-3.2-0.7-5.1c0.5-1.5,1.8-2.4,3.2-2.3c0.9,0.1,1.2,0,1.8,0.5S1138,537.5,1137.8,538.6z M840.5,460.6
	c0,0-0.4,3.2-2,3.8c-1.7,0.6-2.5,0.5-3.5-0.3c-1.1-0.8-1.4-3.1-0.7-5.1c0.5-1.5,1.8-2.4,3.2-2.3c0.9,0.1,1.2,0,1.8,0.5
	C839.7,457.6,840.8,459.5,840.5,460.6L840.5,460.6z M1008.8,174.9c0,0-0.4,3.2-2,3.8c-1.7,0.6-2.5,0.5-3.5-0.3
	c-1.1-0.8-1.4-3.1-0.7-5.1c0.5-1.5,1.8-2.4,3.2-2.3c0.9,0.1,1.2,0,1.8,0.5C1008,171.9,1009,173.8,1008.8,174.9L1008.8,174.9z
	 M1124.2,167.8c0,0-0.4,3.2-2,3.8s-2.5,0.5-3.5-0.3c-1.1-0.8-1.4-3.1-0.7-5.1c0.5-1.5,1.8-2.4,3.2-2.3c0.9,0.1,1.2,0,1.8,0.5
	C1123.4,164.8,1124.4,166.7,1124.2,167.8L1124.2,167.8z M883.8,502.7c0,0-0.8,6.5-4.1,7.6s-5,1-7.1-0.7s-2.8-6.3-1.4-10.2
	c0.9-3,3.5-4.9,6.4-4.6c1.8,0.2,2.4,0.1,3.5,1S884.3,500.5,883.8,502.7L883.8,502.7z M1054,585.7c0,0-0.8,6.5-4.1,7.6
	c-3.3,1.2-5,1-7.1-0.7s-2.8-6.3-1.4-10.2c0.9-3,3.5-4.9,6.4-4.7c1.8,0.2,2.4,0.1,3.5,1C1052.4,579.7,1054.5,583.5,1054,585.7
	L1054,585.7z M1137.8,441.7c0,0-0.8,6.5-4.1,7.6c-3.3,1.2-5,1-7.1-0.7s-2.8-6.3-1.4-10.2c0.9-3,3.5-4.9,6.4-4.6
	c1.8,0.2,2.4,0.1,3.5,1S1138.3,439.5,1137.8,441.7L1137.8,441.7z M963.7,104.1c0,0-0.4,3.2-2,3.8s-2.5,0.5-3.5-0.3
	c-1.1-0.8-1.4-3.2-0.7-5.1c0.5-1.5,1.8-2.4,3.2-2.3c0.9,0.1,1.2,0,1.8,0.5C962.9,101.1,964,103,963.7,104.1z M890.2,326.7
	c0,0-0.4,3.2-2,3.8c-1.7,0.6-2.5,0.5-3.5-0.3c-1.1-0.8-1.4-3.1-0.7-5.1c0.5-1.5,1.8-2.4,3.2-2.3c0.9,0.1,1.2,0,1.8,0.5
	C889.4,323.8,890.5,325.6,890.2,326.7L890.2,326.7z M1103,354.3c0,0-0.4,3.2-2,3.8s-2.5,0.5-3.5-0.3s-1.4-3.1-0.7-5.1
	c0.5-1.5,1.8-2.4,3.2-2.3c0.9,0.1,1.2,0,1.8,0.5C1102.2,351.4,1103.3,353.2,1103,354.3L1103,354.3z M1013.4,496.1c0,0-0.4,3.2-2,3.8
	s-2.5,0.5-3.5-0.3c-1.1-0.8-1.4-3.1-0.7-5.1c0.5-1.5,1.8-2.4,3.2-2.3c0.9,0.1,1.2,0,1.7,0.5C1012.6,493.2,1013.6,495,1013.4,496.1z
	 M936.1,609.5c0,0-0.4,3.2-2,3.8s-2.5,0.5-3.5-0.3c-1.1-0.8-1.4-3.2-0.7-5.1c0.5-1.5,1.8-2.4,3.2-2.3c0.9,0.1,1.2,0,1.8,0.5
	C935.3,606.5,936.4,608.4,936.1,609.5z M1187.6,607.3c0,0-0.4,3.2-2,3.8s-2.5,0.5-3.5-0.3c-1.1-0.8-1.4-3.2-0.7-5.1
	c0.5-1.5,1.8-2.4,3.2-2.3c0.9,0.1,1.2,0,1.8,0.5C1186.7,604.4,1187.8,606.2,1187.6,607.3z M1033.5,189.6c0,0-0.7,6.5-4.1,7.6
	c-3.3,1.1-5,1-7.1-0.7s-2.8-6.3-1.4-10.2c0.9-3,3.5-4.9,6.4-4.6c1.8,0.2,2.4,0.1,3.5,1C1031.9,183.7,1034,187.4,1033.5,189.6
	L1033.5,189.6z M999.9,226.9c0,0-1,8.7-5.5,10.2c-4.4,1.6-6.7,1.3-9.5-0.9s-3.7-8.4-1.8-13.6c1.2-3.9,4.7-6.5,8.5-6.2
	c2.4,0.3,3.2,0.1,4.7,1.3S1000.5,224,999.9,226.9L999.9,226.9z M1204.8,72.2c0,0-0.6,5.2-3.3,6.2s-4,0.8-5.7-0.5s-2.3-5.1-1.1-8.2
	c0.7-2.4,2.8-3.9,5.1-3.8c1.5,0.2,1.9,0.1,2.8,0.8C1203.5,67.3,1205.2,70.4,1204.8,72.2z M1083.8,15c0,0-0.4,3.2-2,3.8
	c-1.7,0.6-2.5,0.5-3.5-0.3c-1.1-0.8-1.4-3.1-0.7-5.1c0.5-1.5,1.8-2.4,3.2-2.3c0.9,0.1,1.2,0,1.8,0.5S1084,13.9,1083.8,15z
	 M1000.1,62.1c0,0-0.8,6.5-4.1,7.6s-5,1-7.1-0.7s-2.8-6.3-1.4-10.2c0.9-3,3.5-4.9,6.4-4.7c1.8,0.2,2.4,0.1,3.5,1
	C998.5,56.1,1000.6,59.9,1000.1,62.1L1000.1,62.1z M882.2,85.9c0,0-0.4,3.2-2,3.8s-2.5,0.5-3.5-0.3c-1.1-0.8-1.4-3.2-0.7-5.1
	c0.5-1.5,1.8-2.4,3.2-2.3c0.9,0.1,1.2,0,1.7,0.5C881.3,83,882.4,84.8,882.2,85.9L882.2,85.9z M1133.6,83.8c0,0-0.4,3.2-2,3.8
	s-2.5,0.5-3.5-0.3s-1.4-3.2-0.7-5.1c0.5-1.5,1.8-2.4,3.2-2.3c0.9,0.1,1.2,0,1.7,0.5S1133.8,82.7,1133.6,83.8z M915.4,198.3
	c0,0-0.4,3.2-2,3.8s-2.5,0.5-3.5-0.3c-1.1-0.8-1.4-3.1-0.7-5.1c0.4-1.5,1.8-2.4,3.2-2.3c0.9,0.1,1.2,0,1.8,0.5
	C914.6,195.3,915.7,197.2,915.4,198.3L915.4,198.3z M834.4,96.8c0,0-1.1,9.6-6,11.3s-7.3,1.5-10.5-1s-4.1-9.3-2.1-15
	s6.7-7.2,9.4-6.9s3.6,0.1,5.2,1.5S835.1,93.6,834.4,96.8L834.4,96.8z M869.4,177.1c0,0-1.1,9.6-6,11.3s-7.3,1.5-10.5-1
	s-4.1-9.3-2.1-15s6.7-7.2,9.3-6.9c2.7,0.4,3.6,0.1,5.2,1.5S870,173.9,869.4,177.1L869.4,177.1z M869.4,397c0,0-1.1,9.5-6,11.3
	c-4.9,1.7-7.3,1.5-10.5-1s-4.1-9.3-2.1-15s6.7-7.2,9.3-6.9c2.7,0.4,3.6,0.1,5.2,1.5S870,393.8,869.4,397L869.4,397z M858.3,594.2
	c0,0-1.1,9.5-6,11.3s-7.3,1.5-10.5-1s-4.1-9.3-2.1-15c2.1-5.8,6.7-7.2,9.3-6.9s3.6,0.1,5.2,1.5C855.9,585.4,858.9,591,858.3,594.2
	L858.3,594.2z M1196.3,388.3c0,0-1.1,9.5-6,11.3c-4.9,1.7-7.3,1.5-10.5-1s-4.1-9.3-2.1-15.1s6.7-7.2,9.4-6.9s3.6,0.1,5.2,1.5
	C1193.9,379.4,1196.9,385,1196.3,388.3L1196.3,388.3z M1349.5,230.5c0,0-0.8,6.5-4.1,7.6c-3.3,1.2-5,1-7.1-0.7s-2.8-6.3-1.4-10.2
	c0.9-3,3.5-4.9,6.4-4.6c1.8,0.2,2.4,0.1,3.5,1C1347.9,224.6,1350,228.3,1349.5,230.5L1349.5,230.5z M1362.9,276.2c0,0-0.4,3.2-2,3.8
	c-1.7,0.6-2.5,0.5-3.5-0.3s-1.4-3.1-0.7-5.1c0.5-1.5,1.8-2.4,3.2-2.3c0.9,0.1,1.2,0,1.8,0.5C1362.1,273.2,1363.1,275.1,1362.9,276.2
	z M1346.3,193.6c0,0-0.4,3.2-2,3.8s-2.5,0.5-3.5-0.3c-1.1-0.8-1.4-3.1-0.7-5.1c0.5-1.5,1.8-2.4,3.2-2.3c0.9,0.1,1.2,0,1.7,0.5
	C1345.5,190.6,1346.6,192.5,1346.3,193.6z M1509.6,359.2c0,0-0.8,6.5-4.1,7.6c-3.3,1.2-5,1-7.1-0.7s-2.8-6.3-1.4-10.2
	c0.9-3,3.5-4.9,6.4-4.6c1.8,0.2,2.4,0.1,3.5,1S1510.1,357,1509.6,359.2L1509.6,359.2z M1567.5,278.7c0,0-0.4,3.2-2,3.8
	s-2.5,0.5-3.5-0.3c-1.1-0.8-1.4-3.1-0.7-5.1c0.5-1.5,1.8-2.4,3.2-2.3c0.9,0.1,1.2,0,1.8,0.5C1566.7,275.7,1567.7,277.6,1567.5,278.7
	z M1455.3,477.7c0,0-0.4,3.2-2,3.8s-2.5,0.5-3.5-0.3c-1.1-0.8-1.4-3.1-0.7-5.1c0.5-1.5,1.8-2.4,3.2-2.3c0.9,0.1,1.2,0,1.7,0.5
	C1454.5,474.8,1455.5,476.6,1455.3,477.7z M1362.4,439.4c0,0-0.4,3.2-2,3.8c-1.7,0.6-2.5,0.5-3.5-0.3c-1.1-0.8-1.4-3.1-0.7-5.1
	c0.5-1.5,1.8-2.4,3.2-2.3c0.9,0.1,1.2,0,1.8,0.5C1361.6,436.5,1362.7,438.3,1362.4,439.4L1362.4,439.4z M1530.7,153.7
	c0,0-0.4,3.2-2,3.8s-2.5,0.5-3.5-0.3s-1.4-3.1-0.7-5.1c0.5-1.5,1.8-2.4,3.2-2.3c0.9,0.1,1.2,0,1.7,0.5S1530.9,152.6,1530.7,153.7
	L1530.7,153.7z M1405.7,481.6c0,0-0.8,6.5-4.1,7.6c-3.3,1.2-5,1-7.1-0.7s-2.8-6.3-1.4-10.2c0.9-3,3.5-4.9,6.4-4.6
	c1.8,0.2,2.4,0.1,3.5,1S1406.2,479.3,1405.7,481.6L1405.7,481.6z M1575.9,564.5c0,0-0.8,6.5-4.1,7.6c-3.3,1.2-5,1-7.1-0.7
	s-2.8-6.3-1.4-10.2c0.9-3,3.5-4.9,6.4-4.6c1.8,0.2,2.4,0.1,3.5,1S1576.4,562.4,1575.9,564.5L1575.9,564.5z M1485.6,82.9
	c0,0-0.4,3.2-2,3.8s-2.5,0.5-3.5-0.3c-1.1-0.8-1.4-3.2-0.7-5.1c0.5-1.5,1.8-2.4,3.2-2.3c0.9,0.1,1.2,0,1.8,0.5
	C1484.8,80,1485.9,81.8,1485.6,82.9z M1412.1,305.5c0,0-0.4,3.2-2,3.8s-2.5,0.5-3.5-0.3s-1.4-3.1-0.7-5.1c0.5-1.5,1.8-2.4,3.2-2.3
	c0.9,0.1,1.2,0,1.8,0.5S1412.4,304.4,1412.1,305.5z M1535.3,475c0,0-0.4,3.2-2,3.8s-2.5,0.5-3.5-0.3c-1.1-0.8-1.4-3.1-0.7-5.1
	c0.5-1.5,1.8-2.4,3.2-2.3c0.9,0.1,1.2,0,1.7,0.5C1534.5,472,1535.5,473.9,1535.3,475L1535.3,475z M1458,588.3c0,0-0.4,3.2-2,3.8
	s-2.5,0.5-3.5-0.3c-1.1-0.8-1.4-3.2-0.7-5.1c0.5-1.5,1.8-2.4,3.2-2.3c0.9,0.1,1.2,0,1.8,0.5C1457.2,585.3,1458.2,587.2,1458,588.3z
	 M1555.4,168.5c0,0-0.8,6.5-4.1,7.6c-3.3,1.2-5,1-7.1-0.7s-2.8-6.3-1.4-10.2c0.9-3,3.5-4.9,6.4-4.6c1.8,0.2,2.4,0.1,3.5,1
	S1555.9,166.3,1555.4,168.5L1555.4,168.5z M1521.8,205.8c0,0-1,8.6-5.5,10.2s-6.7,1.3-9.5-0.9s-3.7-8.4-1.8-13.6
	c1.2-3.9,4.7-6.5,8.5-6.2c2.4,0.3,3.2,0.1,4.7,1.3C1519.6,197.8,1522.4,202.8,1521.8,205.8L1521.8,205.8z M1522,41
	c0,0-0.8,6.5-4.1,7.6s-5,1-7.1-0.7s-2.8-6.3-1.4-10.2c0.9-3,3.5-4.9,6.4-4.6c1.8,0.2,2.4,0.1,3.5,1S1522.5,38.8,1522,41L1522,41z
	 M1404,64.8c0,0-0.4,3.2-2,3.8s-2.5,0.5-3.5-0.3s-1.4-3.2-0.7-5.1c0.5-1.5,1.8-2.4,3.2-2.3c0.9,0.1,1.2,0,1.7,0.5
	S1404.3,63.6,1404,64.8z M1437.3,177.1c0,0-0.4,3.2-2,3.8c-1.7,0.6-2.5,0.5-3.5-0.3c-1.1-0.8-1.4-3.2-0.7-5.1
	c0.5-1.5,1.8-2.4,3.2-2.3c0.9,0.1,1.2,0,1.8,0.5S1437.6,176,1437.3,177.1z M1296,74.5c0,0-1.1,9.5-6,11.3s-7.3,1.5-10.5-1
	s-4.1-9.3-2.1-15.1c2.1-5.8,6.7-7.2,9.4-6.9s3.6,0.1,5.2,1.5C1293.6,65.6,1296.7,71.2,1296,74.5L1296,74.5z M1391.3,156
	c0,0-1.1,9.6-6,11.3s-7.3,1.5-10.5-1s-4.1-9.3-2.1-15.1s6.7-7.2,9.4-6.9s3.6,0.1,5.2,1.5C1388.9,147.1,1391.9,152.7,1391.3,156
	L1391.3,156z M1391.3,375.9c0,0-1.1,9.5-6,11.3c-4.9,1.7-7.3,1.5-10.5-1s-4.1-9.3-2.1-15.1s6.7-7.2,9.4-6.9s3.6,0.1,5.2,1.5
	C1388.9,367,1391.9,372.6,1391.3,375.9L1391.3,375.9z M1380.1,573.1c0,0-1.1,9.5-6,11.3s-7.3,1.5-10.5-1s-4.1-9.3-2.1-15.1
	c2.1-5.8,6.7-7.2,9.3-6.8s3.6,0.1,5.2,1.5S1380.8,569.8,1380.1,573.1L1380.1,573.1z M119.5,88.9c0,0-1-6-5.5-7.1s-6.7-0.9-9.5,0.6
	s-3.7,5.9-1.9,9.5s6.1,4.6,8.5,4.3c2.4-0.2,3.2-0.1,4.7-0.9C117.4,94.5,120.2,90.9,119.5,88.9L119.5,88.9z M203.7,85
	c0,0-0.6-5.2-3.3-6.2c-2.7-0.9-4-0.8-5.7,0.5s-2.2,5.1-1.1,8.2c0.7,2.4,2.8,3.9,5.1,3.8c1.5-0.2,1.9-0.1,2.8-0.8
	C202.4,89.9,204.1,86.8,203.7,85L203.7,85z M248.4,204.4c0,0-1.1-9.6-6-11.3s-7.3-1.5-10.5,1s-4.1,9.3-2.1,15.1s6.7,7.2,9.4,6.9
	c2.7-0.4,3.6-0.1,5.2-1.5S249,207.7,248.4,204.4L248.4,204.4z M221.4,487.2c0,0-1.1-9.5-6-11.3s-7.3-1.5-10.5,1s-4.1,9.3-2.1,15
	s6.7,7.2,9.4,6.9s3.6-0.1,5.2-1.5C219,496,222,490.5,221.4,487.2L221.4,487.2z M209.7,519c0,0-0.8-6.5-4.1-7.6s-5-1-7.1,0.7
	c-2.1,1.7-2.8,6.3-1.4,10.2c0.9,3,3.5,4.9,6.4,4.6c1.8-0.2,2.4-0.1,3.5-1S210.2,521.2,209.7,519L209.7,519z M110.1,433.6
	c0,0-0.8-6.5-4.1-7.6s-5-1-7.1,0.7s-2.8,6.3-1.4,10.2c0.9,3,3.5,4.9,6.4,4.6c1.8-0.2,2.4-0.1,3.5-1S110.6,435.8,110.1,433.6
	L110.1,433.6z M65.6,612.5c0,0-1-6-5.5-7.1s-6.7-0.9-9.5,0.6s-3.7,5.9-1.9,9.5s6.1,4.5,8.5,4.3s3.2-0.1,4.7-0.9
	S66.2,614.5,65.6,612.5L65.6,612.5z M182.1,357.7c0,0-0.4-3.2-2-3.8c-1.7-0.6-2.5-0.5-3.5,0.3c-1.1,0.8-1.4,3.1-0.7,5.1
	c0.5,1.5,1.8,2.4,3.2,2.3c0.9-0.1,1.2,0,1.8-0.5C181.3,360.7,182.3,358.8,182.1,357.7L182.1,357.7z M279.6,301.3c0,0-0.4-3.2-2-3.8
	s-2.5-0.5-3.5,0.3s-1.4,3.1-0.7,5.1c0.5,1.5,1.8,2.4,3.2,2.3c0.9-0.1,1.2,0,1.8-0.5S279.9,302.4,279.6,301.3L279.6,301.3z
	 M222.1,266.3c0,0-0.4-3.2-2-3.8s-2.5-0.5-3.5,0.3c-1.1,0.8-1.4,3.1-0.7,5.1c0.5,1.5,1.8,2.4,3.2,2.3c0.9-0.1,1.2,0,1.8-0.5
	S222.3,267.4,222.1,266.3z M82.7,142.2c0,0-0.4-3.2-2-3.8s-2.5-0.5-3.5,0.3c-1.1,0.8-1.4,3.1-0.7,5.1c0.5,1.5,1.8,2.4,3.2,2.3
	c0.9-0.1,1.2,0,1.8-0.5C81.9,145.1,82.9,143.3,82.7,142.2L82.7,142.2z M69.1,513c0,0-0.4-3.2-2-3.8s-2.5-0.5-3.5,0.3
	s-1.4,3.1-0.7,5.1c0.5,1.5,1.8,2.4,3.2,2.3c0.9-0.1,1.2,0,1.8-0.5C68.3,515.9,69.4,514.1,69.1,513z M82.8,239c0,0-0.8-6.5-4.1-7.6
	c-3.3-1.2-5-1-7.1,0.7s-2.8,6.3-1.4,10.2c0.9,3,3.5,4.9,6.4,4.6c1.8-0.2,2.4-0.1,3.5-1S83.3,241.2,82.8,239L82.8,239z M47.9,326.4
	c0,0-0.4-3.2-2-3.8s-2.5-0.5-3.5,0.3S41,326,41.7,328c0.4,1.5,1.7,2.5,3.2,2.4c0.9-0.1,1.2,0,1.8-0.5
	C47.1,329.4,48.1,327.6,47.9,326.4L47.9,326.4z M132.4,73.4c0,0-0.4-3.2-2-3.8s-2.5-0.5-3.5,0.3s-1.4,3.2-0.7,5.1
	c0.4,1.5,1.7,2.5,3.2,2.4c0.9-0.1,1.2,0,1.8-0.5S132.7,74.6,132.4,73.4L132.4,73.4z M785.6,16.6c0,0-0.8-6.5-4.1-7.6
	c-3.3-1.2-5-1-7.1,0.7s-2.8,6.3-1.4,10.2c0.9,3,3.5,4.9,6.4,4.7c1.8-0.3,2.4-0.1,3.5-1S786,18.8,785.6,16.6L785.6,16.6z
	 M641.4,110.1c0,0-1-6-5.5-7.1s-6.7-0.9-9.5,0.6c-2.8,1.6-3.7,5.9-1.9,9.5c1.9,3.6,6.1,4.6,8.5,4.3c2.4-0.2,3.2-0.1,4.7-0.9
	S642,112.1,641.4,110.1z M529.6,3.5c0,0-0.4-3.2-2-3.8S525.1-0.8,524,0s-1.4,3.2-0.7,5.1c0.5,1.5,1.8,2.4,3.2,2.3
	c0.9-0.1,1.2,0,1.8-0.5S529.8,4.6,529.6,3.5L529.6,3.5z M645,10.6c0,0-0.4-3.2-2-3.8s-2.5-0.5-3.5,0.3c-1.1,0.8-1.4,3.2-0.7,5.1
	c0.5,1.5,1.8,2.4,3.2,2.3c0.9-0.1,1.2,0,1.8-0.5C644.2,13.5,645.2,11.7,645,10.6L645,10.6z M484.5,74.3c0,0-0.4-3.2-2-3.8
	S480,70,479,70.8c-1.1,0.8-1.4,3.2-0.7,5.1c0.4,1.5,1.8,2.4,3.2,2.3c0.9-0.1,1.2,0,1.8-0.5S484.8,75.4,484.5,74.3z M725.6,106.2
	c0,0-0.6-5.2-3.3-6.2s-4-0.8-5.7,0.5s-2.2,5.1-1.1,8.2c0.7,2.4,2.8,3.9,5.1,3.8c1.5-0.2,1.9-0.1,2.8-0.8S726,108,725.6,106.2z
	 M770.3,225.6c0,0-1.1-9.6-6-11.3s-7.3-1.5-10.5,1s-4.1,9.3-2.1,15.1c2.1,5.8,6.7,7.2,9.3,6.9s3.6-0.1,5.2-1.5
	C767.9,234.4,771,228.9,770.3,225.6L770.3,225.6z M743.3,508.4c0,0-1.1-9.5-6-11.3s-7.3-1.5-10.5,1s-4.1,9.3-2.1,15.1
	c2.1,5.8,6.7,7.2,9.4,6.8s3.6-0.1,5.2-1.5S743.9,511.7,743.3,508.4L743.3,508.4z M731.6,540.2c0,0-0.8-6.5-4.1-7.6s-5-1-7.1,0.7
	s-2.8,6.3-1.4,10.2c0.9,3,3.5,4.9,6.4,4.7c1.8-0.2,2.4-0.1,3.5-1C730,546.2,732.1,542.4,731.6,540.2L731.6,540.2z M632,454.8
	c0,0-0.8-6.5-4.1-7.6s-5-1-7.1,0.7s-2.8,6.3-1.4,10.2c0.9,3,3.5,4.9,6.4,4.6c1.8-0.2,2.4-0.1,3.5-1S632.5,457,632,454.8L632,454.8z
	 M587.5,633.7c0,0-1-6-5.5-7.1s-6.7-0.9-9.5,0.6s-3.7,5.9-1.8,9.5s6.1,4.5,8.5,4.3s3.2-0.1,4.7-0.9S588.1,635.7,587.5,633.7
	L587.5,633.7z M241,421.3c0,0-0.8-6.5-4.1-7.6c-3.3-1.2-5-1-7.1,0.7s-2.8,6.3-1.4,10.2c0.9,3,3.5,4.9,6.4,4.6c1.8-0.3,2.4-0.1,3.5-1
	C239.4,427.3,241.5,423.5,241,421.3L241,421.3z M307.9,404.6c0,0-0.4-3.2-2-3.8s-2.5-0.5-3.5,0.3c-1.1,0.8-1.4,3.1-0.7,5.1
	c0.5,1.5,1.8,2.4,3.2,2.3c0.9-0.1,1.2,0,1.8-0.5C307.1,407.6,308.1,405.7,307.9,404.6z M291.3,487.2c0,0-0.4-3.2-2-3.8
	c-1.7-0.6-2.5-0.5-3.5,0.3c-1.1,0.8-1.4,3.1-0.7,5.1c0.5,1.5,1.8,2.4,3.2,2.3c0.9-0.1,1.2,0,1.8-0.5S291.5,488.3,291.3,487.2z
	 M704,378.9c0,0-0.4-3.2-2-3.8s-2.5-0.5-3.5,0.3c-1.1,0.8-1.4,3.1-0.7,5.1c0.5,1.5,1.8,2.4,3.2,2.3c0.9-0.1,1.2,0,1.8-0.5
	S704.2,380,704,378.9L704,378.9z M781.3,373.9c0,0-0.4-3.2-2-3.8s-2.5-0.5-3.5,0.3c-1.1,0.8-1.4,3.1-0.7,5.1
	c0.5,1.5,1.8,2.4,3.2,2.3c0.9-0.1,1.2,0,1.8-0.5S781.6,375,781.3,373.9L781.3,373.9z M743.9,287.4c0,0-0.4-3.2-2-3.8
	s-2.5-0.5-3.5,0.3c-1.1,0.8-1.4,3.1-0.7,5.1c0.5,1.5,1.8,2.4,3.2,2.3c0.9-0.1,1.2,0,1.7-0.5S744.2,288.5,743.9,287.4L743.9,287.4z
	 M454.6,321.6c0,0-0.8-6.5-4.1-7.6s-5-1-7.1,0.7s-2.8,6.3-1.4,10.2c0.9,3,3.5,4.9,6.4,4.6c1.8-0.2,2.4-0.1,3.5-1
	C453,327.6,455.1,323.8,454.6,321.6L454.6,321.6z M512.4,402.1c0,0-0.4-3.2-2-3.8c-1.7-0.6-2.5-0.5-3.5,0.3s-1.4,3.1-0.7,5.1
	c0.5,1.5,1.8,2.4,3.2,2.3c0.9-0.1,1.2,0,1.8-0.5S512.6,403.2,512.4,402.1L512.4,402.1z M400.2,203c0,0-0.4-3.2-2-3.8
	s-2.5-0.5-3.5,0.3s-1.4,3.1-0.7,5.1c0.5,1.5,1.8,2.4,3.2,2.3c0.9-0.1,1.2,0,1.8-0.5S400.4,204.1,400.2,203L400.2,203z M604.6,163.3
	c0,0-0.4-3.2-2-3.8s-2.5-0.5-3.5,0.3c-1.1,0.8-1.4,3.1-0.7,5.1c0.5,1.5,1.8,2.4,3.2,2.3c0.9-0.1,1.2,0,1.8-0.5
	S604.8,164.4,604.6,163.3L604.6,163.3z M307.4,241.3c0,0-0.4-3.2-2-3.8s-2.5-0.5-3.5,0.3s-1.4,3.1-0.7,5.1c0.5,1.5,1.8,2.4,3.2,2.3
	c0.9-0.1,1.2,0,1.8-0.5C306.6,244.3,307.6,242.4,307.4,241.3L307.4,241.3z M475.6,527c0,0-0.4-3.2-2-3.8c-1.7-0.6-2.5-0.5-3.5,0.3
	s-1.4,3.2-0.7,5.1c0.5,1.5,1.8,2.4,3.2,2.3c0.9-0.1,1.2,0,1.8-0.5S475.8,528.1,475.6,527L475.6,527z M591,534.1c0,0-0.4-3.2-2-3.8
	s-2.5-0.5-3.5,0.3c-1.1,0.8-1.4,3.2-0.7,5.1c0.5,1.5,1.8,2.4,3.2,2.3c0.9-0.1,1.2,0,1.8-0.5S591.2,535.2,591,534.1L591,534.1z
	 M350.7,199.2c0,0-0.8-6.5-4.1-7.6c-3.3-1.2-5-1-7.1,0.7s-2.8,6.3-1.4,10.2c0.9,3,3.5,4.9,6.4,4.6c1.8-0.2,2.4-0.1,3.5-1
	S351.1,201.4,350.7,199.2L350.7,199.2z M520.9,116.3c0,0-0.8-6.5-4.1-7.6s-5-1-7.1,0.7s-2.8,6.3-1.4,10.2c0.9,3,3.5,4.9,6.4,4.6
	c1.8-0.2,2.4-0.1,3.5-1S521.3,118.5,520.9,116.3L520.9,116.3z M604.7,260.2c0,0-0.8-6.5-4.1-7.6s-5-1-7.1,0.7s-2.8,6.3-1.4,10.2
	c0.9,3,3.5,4.9,6.4,4.6c1.8-0.2,2.4-0.1,3.5-1C603.1,266.2,605.2,262.4,604.7,260.2L604.7,260.2z M430.6,597.8c0,0-0.4-3.2-2-3.8
	s-2.5-0.5-3.5,0.3s-1.4,3.2-0.7,5.1c0.5,1.5,1.8,2.4,3.2,2.3c0.9-0.1,1.2,0,1.8-0.5C429.7,600.8,430.8,599,430.6,597.8z
	 M357.1,375.2c0,0-0.4-3.2-2-3.8s-2.5-0.5-3.5,0.3s-1.4,3.1-0.7,5.1c0.5,1.5,1.8,2.4,3.2,2.3c0.9-0.1,1.2,0,1.8-0.5
	S357.3,376.3,357.1,375.2z M569.8,347.6c0,0-0.4-3.2-2-3.8s-2.5-0.5-3.5,0.3c-1.1,0.8-1.4,3.1-0.7,5.1c0.4,1.5,1.8,2.4,3.2,2.3
	c0.9-0.1,1.2,0,1.8-0.5C569,350.5,570.1,348.7,569.8,347.6L569.8,347.6z M480.2,205.8c0,0-0.4-3.2-2-3.8s-2.5-0.5-3.5,0.3
	s-1.4,3.1-0.7,5.1c0.5,1.5,1.8,2.4,3.2,2.3c0.9-0.1,1.2,0,1.8-0.5S480.5,206.9,480.2,205.8L480.2,205.8z M402.9,92.5
	c0,0-0.4-3.2-2-3.8c-1.7-0.6-2.5-0.5-3.5,0.3c-1.1,0.8-1.4,3.2-0.7,5.1c0.4,1.5,1.7,2.4,3.1,2.3c0.9-0.1,1.2,0,1.8-0.5
	C402.1,95.4,403.1,93.6,402.9,92.5L402.9,92.5z M654.4,94.6c0,0-0.4-3.2-2-3.8s-2.5-0.5-3.5,0.3c-1.1,0.8-1.4,3.2-0.7,5.1
	c0.4,1.4,1.7,2.4,3.1,2.3c0.9-0.1,1.2,0,1.8-0.5C653.5,97.5,654.5,95.7,654.4,94.6L654.4,94.6z M500.3,512.3c0,0-0.8-6.5-4.1-7.6
	c-3.3-1.2-5-1-7.1,0.7s-2.8,6.3-1.4,10.2c0.9,3,3.5,4.9,6.4,4.6c1.8-0.2,2.4-0.1,3.5-1C498.8,518.3,500.8,514.5,500.3,512.3
	L500.3,512.3z M466.7,475c0,0-1-8.7-5.5-10.2c-4.4-1.5-6.7-1.3-9.5,0.9s-3.7,8.4-1.9,13.6c1.9,5.2,6.1,6.5,8.5,6.2s3.2-0.1,4.7-1.3
	S467.3,477.9,466.7,475L466.7,475z M294.9,82.7c0,0-1.1-9.6-6-11.3s-7.3-1.5-10.5,1s-4.1,9.3-2.1,15.1c2.1,5.8,6.7,7.2,9.3,6.9
	s3.6-0.1,5.2-1.5C292.5,91.5,295.6,85.9,294.9,82.7L294.9,82.7z M1276.4,1280.3c0,0-1.1,9.6-6,11.3s-7.3,1.5-10.5-1
	s-4.1-9.3-2.1-15.1s6.7-7.2,9.3-6.8s3.6,0.1,5.2,1.5C1274,1271.4,1277.1,1277,1276.4,1280.3L1276.4,1280.3z M1264.8,1248.5
	c0,0-0.8,6.5-4.1,7.6c-3.3,1.2-5,1-7.1-0.7s-2.8-6.3-1.4-10.2c0.9-3,3.5-4.9,6.4-4.7c1.8,0.2,2.4,0.1,3.5,1
	C1263.2,1242.5,1265.3,1246.3,1264.8,1248.5L1264.8,1248.5z M1165.2,1333.9c0,0-0.8,6.5-4.1,7.6c-3.3,1.2-5,1-7.1-0.7
	s-2.8-6.3-1.4-10.2c0.9-3,3.5-4.9,6.4-4.6c1.8,0.2,2.4,0.1,3.5,1C1163.6,1328,1165.7,1331.7,1165.2,1333.9L1165.2,1333.9z
	 M1120.7,1155c0,0-1,6-5.5,7.1s-6.7,0.9-9.5-0.6c-2.8-1.6-3.7-5.9-1.8-9.5c1.9-3.6,6.1-4.6,8.5-4.3s3.2,0.1,4.7,0.9
	S1121.3,1152.9,1120.7,1155L1120.7,1155z M827.7,1338.4c0,0-0.8,6.5-4.1,7.6c-3.3,1.2-5,1-7.1-0.7s-2.8-6.3-1.4-10.2
	c0.9-3,3.5-4.9,6.4-4.7c1.8,0.2,2.4,0.1,3.5,1S828.2,1336.2,827.7,1338.4L827.7,1338.4z M841,1384.1c0,0-0.4,3.2-2,3.8
	s-2.5,0.5-3.5-0.3c-1.1-0.8-1.4-3.2-0.7-5.1c0.5-1.5,1.8-2.4,3.2-2.3c0.9,0.1,1.2,0,1.8,0.5C840.2,1381.1,841.2,1383,841,1384.1
	L841,1384.1z M824.5,1301.4c0,0-0.4,3.2-2,3.8s-2.5,0.5-3.5-0.3c-1.1-0.8-1.4-3.2-0.7-5.1c0.5-1.5,1.8-2.4,3.2-2.3
	c0.9,0.1,1.2,0,1.7,0.5S824.7,1300.3,824.5,1301.4L824.5,1301.4z M1237.2,1409.7c0,0-0.4,3.2-2,3.8c-1.7,0.6-2.5,0.5-3.5-0.3
	c-1.1-0.8-1.4-3.2-0.7-5.1c0.5-1.5,1.8-2.4,3.2-2.3c0.9,0.1,1.2,0,1.8,0.5C1236.3,1406.8,1237.4,1408.6,1237.2,1409.7L1237.2,1409.7
	z M1314.5,1414.7c0,0-0.4,3.2-2,3.8c-1.7,0.6-2.5,0.5-3.5-0.3c-1.1-0.8-1.4-3.2-0.7-5.1c0.5-1.5,1.8-2.4,3.2-2.3
	c0.9,0.1,1.2,0,1.8,0.5C1313.7,1411.8,1314.7,1413.6,1314.5,1414.7L1314.5,1414.7z M987.7,1467.1c0,0-0.8,6.5-4.1,7.6s-5,1-7.1-0.7
	s-2.8-6.3-1.4-10.2c0.9-3,3.5-4.9,6.4-4.7c1.8,0.2,2.4,0.1,3.5,1S988.2,1464.9,987.7,1467.1L987.7,1467.1z M1045.6,1386.5
	c0,0-0.4,3.2-2,3.8s-2.5,0.5-3.5-0.3s-1.4-3.2-0.7-5.1c0.5-1.5,1.8-2.4,3.2-2.3c0.9,0.1,1.2,0,1.7,0.5S1045.8,1385.4,1045.6,1386.5z
	 M1008.8,1261.6c0,0-0.4,3.2-2,3.8s-2.5,0.5-3.5-0.3c-1.1-0.8-1.4-3.2-0.7-5.1c0.5-1.5,1.8-2.4,3.2-2.3c0.9,0.1,1.2,0,1.8,0.5
	C1008,1258.7,1009,1260.5,1008.8,1261.6L1008.8,1261.6z M1124.2,1254.5c0,0-0.4,3.2-2,3.8s-2.5,0.5-3.5-0.3
	c-1.1-0.8-1.4-3.2-0.7-5.1c0.5-1.5,1.8-2.4,3.2-2.3c0.9,0.1,1.2,0,1.8,0.5C1123.4,1251.6,1124.4,1253.4,1124.2,1254.5L1124.2,1254.5
	z M963.7,1190.8c0,0-0.4,3.2-2,3.8s-2.5,0.5-3.5-0.3c-1.1-0.8-1.4-3.2-0.7-5.1c0.5-1.5,1.8-2.4,3.2-2.3c0.9,0.1,1.2,0,1.8,0.5
	C962.9,1187.9,964,1189.7,963.7,1190.8z M890.2,1413.4c0,0-0.4,3.2-2,3.8c-1.7,0.6-2.5,0.5-3.5-0.3c-1.1-0.8-1.4-3.2-0.7-5.1
	c0.5-1.5,1.8-2.4,3.2-2.3c0.9,0.1,1.2,0,1.8,0.5C889.4,1410.5,890.5,1412.3,890.2,1413.4L890.2,1413.4z M1103,1441.1
	c0,0-0.4,3.2-2,3.8s-2.5,0.5-3.5-0.3s-1.4-3.2-0.7-5.1c0.5-1.5,1.8-2.4,3.2-2.3c0.9,0.1,1.2,0,1.8,0.5
	C1102.2,1438.1,1103.3,1440,1103,1441.1z M1033.6,1276.4c0,0-0.7,6.5-4.1,7.6c-3.3,1.2-5,1-7.1-0.7s-2.8-6.3-1.4-10.2
	c0.9-3,3.5-4.9,6.4-4.6c1.8,0.2,2.4,0.1,3.5,1S1034.1,1274.2,1033.6,1276.4L1033.6,1276.4z M999.9,1313.7c0,0-1,8.7-5.5,10.2
	s-6.7,1.3-9.5-0.9c-2.8-2.2-3.7-8.4-1.8-13.6s6-6.6,8.5-6.2s3.2,0.1,4.7,1.3S1000.6,1310.7,999.9,1313.7L999.9,1313.7z
	 M1204.9,1158.9c0,0-0.6,5.2-3.3,6.2s-4,0.8-5.7-0.5s-2.3-5.1-1.1-8.2c0.7-2.4,2.8-3.9,5.1-3.8c1.5,0.2,1.9,0.1,2.8,0.8
	C1203.6,1154,1205.3,1157.1,1204.9,1158.9L1204.9,1158.9z M1249.6,1039.5c0,0-1.1,9.6-6,11.3c-4.9,1.7-7.3,1.5-10.5-1
	s-4.1-9.3-2.1-15c2.1-5.7,6.7-7.2,9.4-6.9s3.6,0.1,5.2,1.5C1247.2,1030.7,1250.2,1036.3,1249.6,1039.5L1249.6,1039.5z M1222.5,756.7
	c0,0-1.1,9.5-6,11.3s-7.3,1.5-10.5-1s-4.1-9.3-2.1-15.1c2.1-5.8,6.7-7.2,9.3-6.8s3.6,0.1,5.2,1.5S1223.2,753.4,1222.5,756.7
	L1222.5,756.7z M1210.8,724.9c0,0-0.8,6.5-4.1,7.6c-3.3,1.2-5,1-7.1-0.7s-2.8-6.3-1.4-10.2c0.9-3,3.5-4.9,6.4-4.7
	c1.8,0.2,2.4,0.1,3.5,1C1209.2,718.9,1211.3,722.7,1210.8,724.9L1210.8,724.9z M1111.3,810.3c0,0-0.8,6.5-4.1,7.6
	c-3.3,1.2-5,1-7.1-0.7s-2.8-6.3-1.4-10.2c0.9-3,3.5-4.9,6.4-4.6c1.8,0.2,2.4,0.1,3.5,1S1111.7,808.1,1111.3,810.3L1111.3,810.3z
	 M1066.8,631.4c0,0-1,6-5.5,7.1c-4.4,1.1-6.7,0.9-9.5-0.6s-3.7-5.9-1.8-9.5c1.9-3.6,6.1-4.5,8.5-4.3s3.2,0.1,4.7,0.9
	S1067.4,629.4,1066.8,631.4L1066.8,631.4z M773.7,814.8c0,0-0.8,6.5-4.1,7.6s-5,1-7.1-0.7s-2.8-6.3-1.4-10.2c0.9-3,3.5-4.9,6.4-4.7
	c1.8,0.2,2.4,0.1,3.5,1C772.1,808.9,774.2,812.6,773.7,814.8L773.7,814.8z M787.1,860.5c0,0-0.4,3.2-2,3.8s-2.5,0.5-3.5-0.3
	c-1.1-0.8-1.4-3.2-0.7-5.1c0.5-1.5,1.8-2.4,3.2-2.3c0.9,0.1,1.2,0,1.8,0.5C786.2,857.5,787.3,859.4,787.1,860.5L787.1,860.5z
	 M770.5,777.9c0,0-0.4,3.2-2,3.8s-2.5,0.5-3.5-0.3c-1.1-0.8-1.4-3.2-0.7-5.1c0.5-1.5,1.8-2.4,3.2-2.3c0.9,0.1,1.2,0,1.8,0.5
	C769.7,774.9,770.7,776.8,770.5,777.9L770.5,777.9z M1183.2,886.2c0,0-0.4,3.2-2,3.8s-2.5,0.5-3.5-0.3s-1.4-3.2-0.7-5.1
	c0.5-1.5,1.8-2.4,3.2-2.3c0.9,0.1,1.2,0,1.8,0.5S1183.4,885.1,1183.2,886.2z M1280.7,942.6c0,0-0.4,3.2-2,3.8s-2.5,0.5-3.5-0.3
	s-1.4-3.2-0.7-5.1c0.5-1.5,1.8-2.4,3.2-2.3c0.9,0.1,1.2,0,1.8,0.5C1279.9,939.6,1281,941.5,1280.7,942.6z M1223.2,977.6
	c0,0-0.4,3.2-2,3.8c-1.7,0.6-2.5,0.5-3.5-0.3c-1.1-0.8-1.4-3.1-0.7-5.1c0.5-1.5,1.8-2.4,3.2-2.3c0.9,0.1,1.2,0,1.8,0.5
	C1222.4,974.6,1223.4,976.5,1223.2,977.6z M933.8,943.4c0,0-0.7,6.5-4.1,7.6s-5,1-7.1-0.7s-2.8-6.3-1.4-10.2c0.9-3,3.5-4.9,6.4-4.7
	c1.8,0.2,2.4,0.1,3.5,1S934.3,941.2,933.8,943.4L933.8,943.4z M991.7,862.9c0,0-0.4,3.2-2,3.8s-2.5,0.5-3.5-0.3
	c-1.1-0.8-1.4-3.2-0.7-5.1c0.5-1.5,1.8-2.4,3.2-2.3c0.9,0.1,1.2,0,1.8,0.5C990.8,860,991.9,861.8,991.7,862.9z M879.4,1062
	c0,0-0.4,3.2-2,3.8s-2.5,0.5-3.5-0.3c-1.1-0.8-1.4-3.2-0.7-5.1c0.5-1.5,1.8-2.4,3.2-2.3c0.9,0.1,1.2,0,1.8,0.5
	C878.6,1059.1,879.7,1060.9,879.4,1062L879.4,1062z M1083.8,1101.7c0,0-0.4,3.2-2,3.8s-2.5,0.5-3.5-0.3s-1.4-3.2-0.7-5.1
	c0.5-1.5,1.8-2.4,3.2-2.3c0.9,0.1,1.2,0,1.8,0.5S1084,1100.6,1083.8,1101.7z M786.6,1023.7c0,0-0.4,3.2-2,3.8
	c-1.7,0.6-2.5,0.5-3.5-0.3c-1.1-0.8-1.4-3.2-0.7-5.1c0.5-1.5,1.8-2.4,3.2-2.3c0.9,0.1,1.2,0,1.7,0.5S786.8,1022.6,786.6,1023.7
	L786.6,1023.7z M954.8,738c0,0-0.4,3.2-2,3.8s-2.5,0.5-3.5-0.3c-1.1-0.8-1.4-3.2-0.7-5.1c0.4-1.5,1.8-2.4,3.2-2.3
	c0.9,0.1,1.2,0,1.8,0.5C954,735.1,955.1,736.9,954.8,738z M1070.2,730.9c0,0-0.4,3.2-2,3.8c-1.7,0.6-2.5,0.5-3.5-0.3
	c-1.1-0.8-1.4-3.2-0.7-5.1c0.5-1.5,1.8-2.4,3.2-2.3c0.9,0.1,1.2,0,1.7,0.5S1070.5,729.8,1070.2,730.9z M829.9,1065.9
	c0,0-0.7,6.5-4.1,7.6s-5,1-7.1-0.7s-2.8-6.3-1.4-10.2c0.9-3,3.5-4.9,6.4-4.7c1.8,0.2,2.4,0.1,3.5,1S830.4,1063.7,829.9,1065.9
	L829.9,1065.9z M1000.1,1148.9c0,0-0.8,6.5-4.1,7.6s-5,1-7.1-0.7s-2.8-6.3-1.4-10.2c0.9-3,3.5-4.9,6.4-4.7c1.8,0.2,2.4,0.1,3.5,1
	C998.5,1142.9,1000.6,1146.7,1000.1,1148.9L1000.1,1148.9z M1083.9,1004.9c0,0-0.8,6.5-4.1,7.6c-3.3,1.2-5,1-7.1-0.7
	s-2.8-6.3-1.4-10.2c0.9-3,3.5-4.9,6.4-4.7c1.8,0.2,2.4,0.1,3.5,1S1084.4,1002.7,1083.9,1004.9L1083.9,1004.9z M909.8,667.2
	c0,0-0.4,3.2-2,3.8s-2.5,0.5-3.5-0.3c-1.1-0.8-1.4-3.2-0.7-5.1c0.5-1.5,1.8-2.4,3.2-2.3c0.9,0.1,1.2,0,1.7,0.5
	C909,664.3,910,666.1,909.8,667.2L909.8,667.2z M836.3,889.8c0,0-0.4,3.2-2,3.8s-2.5,0.5-3.5-0.3c-1.1-0.8-1.4-3.2-0.7-5.1
	c0.5-1.5,1.8-2.4,3.2-2.3c0.9,0.1,1.2,0,1.8,0.5C835.5,886.9,836.5,888.7,836.3,889.8L836.3,889.8z M1049.1,917.5c0,0-0.4,3.2-2,3.8
	s-2.5,0.5-3.5-0.3s-1.4-3.2-0.7-5.1c0.5-1.5,1.8-2.4,3.2-2.3c0.9,0.1,1.2,0,1.7,0.5S1049.3,916.4,1049.1,917.5L1049.1,917.5z
	 M959.5,1059.3c0,0-0.4,3.2-2,3.8s-2.5,0.5-3.5-0.3c-1.1-0.8-1.4-3.2-0.7-5.1c0.5-1.5,1.8-2.4,3.2-2.3c0.9,0.1,1.2,0,1.8,0.5
	C958.7,1056.3,959.7,1058.2,959.5,1059.3L959.5,1059.3z M882.2,1172.6c0,0-0.4,3.2-2,3.8s-2.5,0.5-3.5-0.3c-1.1-0.8-1.4-3.2-0.7-5.1
	c0.5-1.5,1.8-2.4,3.2-2.3c0.9,0.1,1.2,0,1.7,0.5C881.3,1169.7,882.4,1171.5,882.2,1172.6L882.2,1172.6z M1133.6,1170.5
	c0,0-0.4,3.2-2,3.8s-2.5,0.5-3.5-0.3s-1.4-3.2-0.7-5.1c0.5-1.5,1.8-2.4,3.2-2.3c0.9,0.1,1.2,0,1.7,0.5S1133.8,1169.4,1133.6,1170.5
	L1133.6,1170.5z M979.6,752.8c0,0-0.8,6.5-4.1,7.6c-3.3,1.2-5,1-7.1-0.7s-2.8-6.3-1.4-10.2c0.9-3,3.5-4.9,6.4-4.6
	c1.8,0.2,2.4,0.1,3.5,1S980.1,750.6,979.6,752.8L979.6,752.8z M945.9,790.1c0,0-1,8.7-5.5,10.2s-6.7,1.3-9.5-0.9s-3.7-8.4-1.8-13.7
	c1.2-3.9,4.7-6.5,8.5-6.2c2.4,0.3,3.2,0.1,4.7,1.3S946.5,787.1,945.9,790.1L945.9,790.1z M915.4,1285c0,0-0.4,3.2-2,3.8
	s-2.5,0.5-3.5-0.3c-1.1-0.8-1.4-3.2-0.7-5.1c0.4-1.5,1.8-2.4,3.2-2.3c0.9,0.1,1.2,0,1.8,0.5C914.6,1282.1,915.7,1283.9,915.4,1285
	L915.4,1285z M834.4,1183.6c0,0-1.1,9.6-6,11.3c-4.9,1.7-7.3,1.5-10.5-1s-4.1-9.3-2.1-15.1s6.7-7.2,9.4-6.9s3.6,0.1,5.2,1.5
	S835.1,1180.3,834.4,1183.6L834.4,1183.6z M869.4,1263.8c0,0-1.1,9.6-6,11.3c-4.9,1.7-7.3,1.5-10.5-1s-4.1-9.3-2.1-15.1
	s6.7-7.2,9.3-6.9s3.6,0.1,5.2,1.5S870,1260.6,869.4,1263.8L869.4,1263.8z M869.4,1483.7c0,0-1.1,9.6-6,11.3c-4.9,1.7-7.3,1.5-10.5-1
	s-4.1-9.3-2.1-15s6.7-7.2,9.3-6.9s3.6,0.1,5.2,1.5S870,1480.5,869.4,1483.7L869.4,1483.7z M1196.3,1475c0,0-1.1,9.5-6,11.3
	c-4.9,1.7-7.3,1.5-10.5-1s-4.1-9.3-2.1-15.1s6.7-7.2,9.4-6.9s3.6,0.1,5.2,1.5C1193.9,1466.2,1196.9,1471.7,1196.3,1475L1196.3,1475z
	 M1349.5,1317.2c0,0-0.8,6.5-4.1,7.6c-3.3,1.2-5,1-7.1-0.7s-2.8-6.3-1.4-10.2c0.9-3,3.5-4.9,6.4-4.6c1.8,0.2,2.4,0.1,3.5,1
	C1347.9,1311.3,1350,1315,1349.5,1317.2L1349.5,1317.2z M1362.9,1362.9c0,0-0.4,3.2-2,3.8c-1.7,0.6-2.5,0.5-3.5-0.3
	s-1.4-3.1-0.7-5.1c0.5-1.5,1.8-2.4,3.2-2.3c0.9,0.1,1.2,0,1.8,0.5C1362.1,1360,1363.1,1361.8,1362.9,1362.9z M1346.3,1280.3
	c0,0-0.4,3.2-2,3.8s-2.5,0.5-3.5-0.3c-1.1-0.8-1.4-3.2-0.7-5.1c0.5-1.5,1.8-2.4,3.2-2.3c0.9,0.1,1.2,0,1.7,0.5
	S1346.6,1279.2,1346.3,1280.3z M1509.6,1445.9c0,0-0.8,6.5-4.1,7.6c-3.3,1.2-5,1-7.1-0.7s-2.8-6.3-1.4-10.2c0.9-3,3.5-4.9,6.4-4.6
	c1.8,0.2,2.4,0.1,3.5,1S1510.1,1443.7,1509.6,1445.9L1509.6,1445.9z M1567.5,1365.4c0,0-0.4,3.2-2,3.8s-2.5,0.5-3.5-0.3
	c-1.1-0.8-1.4-3.2-0.7-5.1c0.5-1.5,1.8-2.4,3.2-2.3c0.9,0.1,1.2,0,1.8,0.5C1566.7,1362.4,1567.7,1364.3,1567.5,1365.4z
	 M1530.7,1240.4c0,0-0.4,3.2-2,3.8s-2.5,0.5-3.5-0.3s-1.4-3.2-0.7-5.1c0.5-1.5,1.8-2.4,3.2-2.3c0.9,0.1,1.2,0,1.7,0.5
	S1530.9,1239.3,1530.7,1240.4z M1485.6,1169.6c0,0-0.4,3.2-2,3.8s-2.5,0.5-3.5-0.3c-1.1-0.8-1.4-3.2-0.7-5.1
	c0.5-1.5,1.8-2.4,3.2-2.3c0.9,0.1,1.2,0,1.8,0.5C1484.8,1166.7,1485.9,1168.5,1485.6,1169.6L1485.6,1169.6z M1412.1,1392.2
	c0,0-0.4,3.2-2,3.8s-2.5,0.5-3.5-0.3s-1.4-3.2-0.7-5.1c0.5-1.5,1.8-2.4,3.2-2.3c0.9,0.1,1.2,0,1.8,0.5S1412.4,1391.1,1412.1,1392.2
	L1412.1,1392.2z M1555.4,1255.2c0,0-0.8,6.5-4.1,7.6s-5,1-7.1-0.7s-2.8-6.3-1.4-10.2c0.9-3,3.5-4.9,6.4-4.7c1.8,0.3,2.4,0.1,3.5,1
	S1555.9,1253,1555.4,1255.2L1555.4,1255.2z M1521.8,1292.5c0,0-1,8.7-5.5,10.2s-6.7,1.3-9.5-0.9s-3.7-8.4-1.8-13.7
	c1.2-3.9,4.7-6.5,8.5-6.2c2.4,0.3,3.2,0.1,4.7,1.3C1519.6,1284.5,1522.4,1289.5,1521.8,1292.5L1521.8,1292.5z M1588.6,610.2
	c0,0-1,6-5.5,7.1c-4.4,1.1-6.7,0.9-9.5-0.6s-3.7-5.9-1.8-9.5s6.1-4.5,8.5-4.3s3.2,0.1,4.7,0.9S1589.3,608.2,1588.6,610.2
	L1588.6,610.2z M1242.2,822.6c0,0-0.8,6.5-4.1,7.6c-3.3,1.2-5,1-7.1-0.7s-2.8-6.3-1.4-10.2c0.9-3,3.5-4.9,6.4-4.6
	c1.8,0.2,2.4,0.1,3.5,1S1242.7,820.4,1242.2,822.6L1242.2,822.6z M1309,839.3c0,0-0.4,3.2-2,3.8c-1.7,0.6-2.5,0.5-3.5-0.3
	c-1.1-0.8-1.4-3.2-0.7-5.1c0.5-1.5,1.8-2.4,3.2-2.3c0.9,0.1,1.2,0,1.8,0.5C1308.2,836.4,1309.2,838.2,1309,839.3z M1292.5,756.7
	c0,0-0.4,3.2-2,3.8s-2.5,0.5-3.5-0.3c-1.1-0.8-1.4-3.2-0.7-5.1c0.5-1.5,1.8-2.4,3.2-2.3c0.9,0.1,1.2,0,1.7,0.5
	S1292.7,755.6,1292.5,756.7z M1455.8,922.3c0,0-0.8,6.5-4.1,7.6s-5,1-7.1-0.7s-2.8-6.3-1.4-10.2c0.9-3,3.5-4.9,6.4-4.6
	c1.8,0.2,2.4,0.1,3.5,1C1454.2,916.3,1456.2,920.1,1455.8,922.3L1455.8,922.3z M1513.6,841.8c0,0-0.4,3.2-2,3.8s-2.5,0.5-3.5-0.3
	c-1.1-0.8-1.4-3.2-0.7-5.1c0.5-1.5,1.8-2.4,3.2-2.3c0.9,0.1,1.2,0,1.7,0.5C1512.8,838.8,1513.8,840.7,1513.6,841.8z M1401.4,1040.8
	c0,0-0.4,3.2-2,3.8s-2.5,0.5-3.5-0.3c-1.1-0.8-1.4-3.2-0.7-5.1c0.5-1.5,1.8-2.4,3.2-2.3c0.9,0.1,1.2,0,1.7,0.5
	S1401.6,1039.8,1401.4,1040.8L1401.4,1040.8z M1308.6,1002.6c0,0-0.4,3.2-2,3.8s-2.5,0.5-3.5-0.3c-1.1-0.8-1.4-3.2-0.7-5.1
	c0.5-1.5,1.8-2.4,3.2-2.3c0.9,0.1,1.2,0,1.8,0.5C1307.7,999.6,1308.8,1001.5,1308.6,1002.6L1308.6,1002.6z M1476.8,716.8
	c0,0-0.4,3.2-2,3.8s-2.5,0.5-3.5-0.3c-1.1-0.8-1.4-3.2-0.7-5.1c0.5-1.5,1.8-2.4,3.2-2.3c0.9,0.1,1.2,0,1.8,0.5
	S1477,715.7,1476.8,716.8z M1592.2,709.7c0,0-0.4,3.2-2,3.8s-2.5,0.5-3.5-0.3c-1.1-0.8-1.4-3.2-0.7-5.1c0.5-1.5,1.8-2.4,3.2-2.3
	c0.9,0.1,1.2,0,1.7,0.5C1591.4,706.8,1592.4,708.7,1592.2,709.7z M1351.8,1044.7c0,0-0.8,6.5-4.1,7.6s-5,1-7.1-0.7
	s-2.8-6.3-1.4-10.2c0.9-3,3.5-4.9,6.4-4.6c1.8,0.2,2.4,0.1,3.5,1C1350.2,1038.7,1352.3,1042.5,1351.8,1044.7L1351.8,1044.7z
	 M1522,1127.7c0,0-0.8,6.5-4.1,7.6s-5,1-7.1-0.7s-2.8-6.3-1.4-10.2c0.9-3,3.5-4.9,6.4-4.6c1.8,0.2,2.4,0.1,3.5,1
	C1520.4,1121.7,1522.5,1125.5,1522,1127.7L1522,1127.7z M1431.7,646.1c0,0-0.4,3.2-2,3.8s-2.5,0.5-3.5-0.3s-1.4-3.2-0.7-5.1
	c0.5-1.5,1.8-2.4,3.2-2.3c0.9,0.1,1.2,0,1.7,0.5S1431.9,645,1431.7,646.1z M1358.2,868.7c0,0-0.4,3.2-2,3.8
	c-1.7,0.6-2.5,0.5-3.5-0.3c-1.1-0.8-1.4-3.2-0.7-5.1c0.5-1.5,1.8-2.4,3.2-2.3c0.9,0.1,1.2,0,1.8,0.5
	C1357.4,865.8,1358.4,867.6,1358.2,868.7z M1571,896.3c0,0-0.4,3.2-2,3.8s-2.5,0.5-3.5-0.3s-1.4-3.2-0.7-5.1
	c0.4-1.4,1.7-2.4,3.1-2.3c0.9,0.1,1.2,0,1.8,0.5s1.6,2.3,1.4,3.4L1571,896.3z M1481.4,1038.1c0,0-0.4,3.2-2,3.8s-2.5,0.5-3.5-0.3
	c-1.1-0.8-1.4-3.2-0.7-5.1c0.5-1.5,1.8-2.4,3.2-2.3c0.9,0.1,1.2,0,1.7,0.5S1481.6,1037.1,1481.4,1038.1z M1404.1,1151.5
	c0,0-0.4,3.2-2,3.8s-2.5,0.5-3.5-0.3c-1.1-0.8-1.4-3.2-0.7-5.1c0.5-1.5,1.8-2.4,3.2-2.3c0.9,0.1,1.2,0,1.7,0.5
	C1403.3,1148.5,1404.3,1150.4,1404.1,1151.5L1404.1,1151.5z M1501.5,731.6c0,0-0.7,6.5-4.1,7.6c-3.3,1.2-5,1-7.1-0.7
	s-2.8-6.3-1.4-10.2c0.9-3,3.5-4.9,6.4-4.7c1.8,0.3,2.4,0.1,3.5,1C1499.9,725.6,1502,729.4,1501.5,731.6L1501.5,731.6z M1467.8,768.9
	c0,0-1,8.7-5.5,10.2c-4.4,1.5-6.7,1.3-9.5-0.9s-3.7-8.4-1.8-13.7c1.2-3.9,4.7-6.5,8.5-6.2c2.4,0.3,3.2,0.1,4.7,1.3
	S1468.5,766,1467.8,768.9L1467.8,768.9z M1437.4,1263.8c0,0-0.4,3.2-2,3.8s-2.5,0.5-3.5-0.3s-1.4-3.2-0.7-5.1
	c0.5-1.5,1.8-2.4,3.2-2.3c0.9,0.1,1.2,0,1.8,0.5S1437.6,1262.7,1437.4,1263.8z M1296.1,1161.2c0,0-1.1,9.6-6,11.3
	c-4.9,1.7-7.3,1.5-10.5-1s-4.1-9.3-2.1-15.1s6.7-7.2,9.4-6.8s3.6,0.1,5.2,1.5S1296.7,1157.9,1296.1,1161.2L1296.1,1161.2z
	 M1391.3,1242.7c0,0-1.1,9.6-6,11.3c-4.9,1.7-7.3,1.5-10.5-1s-4.1-9.3-2.1-15.1c2.1-5.8,6.7-7.2,9.4-6.8c2.7,0.4,3.6,0.1,5.2,1.5
	C1388.9,1233.8,1392,1239.4,1391.3,1242.7L1391.3,1242.7z M1391.3,1462.6c0,0-1.1,9.6-6,11.3c-4.9,1.7-7.3,1.5-10.5-1
	s-4.1-9.3-2.1-15.1c2.1-5.8,6.7-7.2,9.4-6.8c2.7,0.4,3.6,0.1,5.2,1.5C1388.9,1453.7,1392,1459.3,1391.3,1462.6L1391.3,1462.6z
	 M302.4,767.6c0,0-1.1-9.5-6-11.3s-7.3-1.5-10.5,1s-4.2,9.3-2.1,15.1s6.7,7.2,9.3,6.8s3.6-0.1,5.2-1.5
	C300,776.4,303,770.9,302.4,767.6L302.4,767.6z M275.3,1050.4c0,0-1.1-9.6-6-11.3s-7.3-1.5-10.5,1c-3.1,2.5-4.1,9.3-2.1,15
	c2.1,5.7,6.7,7.2,9.4,6.9c2.7-0.4,3.6-0.1,5.2-1.5S276,1053.6,275.3,1050.4L275.3,1050.4z M263.7,1082.2c0,0-0.8-6.5-4.1-7.6
	s-5-1-7.1,0.7s-2.8,6.3-1.4,10.2c0.9,3,3.5,4.9,6.4,4.6c1.8-0.2,2.4-0.1,3.5-1C262.1,1088.2,264.1,1084.4,263.7,1082.2L263.7,1082.2
	z M164.1,996.8c0,0-0.8-6.5-4.1-7.6s-5-1-7.1,0.7s-2.8,6.3-1.4,10.2c0.9,3,3.5,4.9,6.4,4.7c1.8-0.2,2.4-0.1,3.5-1
	C162.5,1002.8,164.6,999,164.1,996.8L164.1,996.8z M119.5,1175.7c0,0-1-6-5.5-7.1s-6.7-0.9-9.5,0.6s-3.7,5.9-1.9,9.5
	s6.1,4.6,8.5,4.3c2.4-0.2,3.2-0.1,4.7-0.9C117.4,1181.3,120.1,1177.7,119.5,1175.7L119.5,1175.7z M236,920.9c0,0-0.4-3.2-2-3.8
	c-1.7-0.6-2.5-0.5-3.5,0.3c-1.1,0.8-1.4,3.2-0.7,5.1c0.5,1.5,1.8,2.4,3.2,2.3c0.9-0.1,1.2,0,1.8-0.5S236.3,922,236,920.9z
	 M313.4,915.9c0,0-0.4-3.2-2-3.8s-2.5-0.5-3.5,0.3c-1.1,0.8-1.4,3.2-0.7,5.1c0.5,1.5,1.8,2.4,3.2,2.3c0.9-0.1,1.2,0,1.8-0.5
	C312.6,918.8,313.6,917,313.4,915.9z M276,829.4c0,0-0.4-3.2-2-3.8s-2.5-0.5-3.5,0.3s-1.4,3.2-0.7,5.1c0.4,1.5,1.8,2.5,3.2,2.4
	c0.9-0.1,1.2,0,1.7-0.5S276.3,830.6,276,829.4L276,829.4z M44.5,944.1c0,0-0.4-3.2-2-3.8c-1.7-0.6-2.5-0.5-3.5,0.3s-1.4,3.2-0.7,5.1
	c0.5,1.5,1.8,2.4,3.2,2.3c0.9-0.1,1.2,0,1.8-0.5S44.7,945.2,44.5,944.1z M136.6,705.3c0,0-0.4-3.2-2-3.8s-2.5-0.5-3.5,0.3
	s-1.4,3.2-0.7,5.1c0.5,1.5,1.8,2.4,3.2,2.3c0.9-0.1,1.2,0,1.8-0.5C135.8,708.3,136.9,706.4,136.6,705.3z M7.7,1069
	c0,0-0.4-3.2-2-3.8s-2.5-0.5-3.5,0.3s-1.4,3.2-0.7,5.1c0.5,1.5,1.8,2.4,3.2,2.3c0.9-0.1,1.2,0,1.8-0.5S7.9,1070.1,7.7,1069z
	 M123.1,1076.1c0,0-0.4-3.2-2-3.8s-2.5-0.5-3.5,0.3c-1.1,0.8-1.4,3.2-0.7,5.1c0.4,1.5,1.8,2.4,3.2,2.3c0.9-0.1,1.2,0,1.8-0.5
	C122.3,1079.1,123.3,1077.2,123.1,1076.1L123.1,1076.1z M52.9,658.2c0,0-0.8-6.5-4.1-7.6c-3.3-1.2-5-1-7.1,0.7s-2.8,6.3-1.4,10.2
	c0.9,3,3.5,4.9,6.4,4.7c1.8-0.2,2.4-0.1,3.5-1S53.4,660.4,52.9,658.2L52.9,658.2z M136.7,802.2c0,0-0.8-6.5-4.1-7.6
	c-3.3-1.2-5-1-7.1,0.7s-2.8,6.3-1.4,10.2c0.9,3,3.5,4.9,6.4,4.6c1.8-0.2,2.4-0.1,3.5-1S137.2,804.4,136.7,802.2L136.7,802.2z
	 M101.9,889.6c0,0-0.4-3.2-2-3.8s-2.5-0.5-3.5,0.3c-1.1,0.8-1.4,3.2-0.7,5.1c0.5,1.5,1.8,2.4,3.2,2.3c0.9-0.1,1.2,0,1.8-0.5
	C101.1,892.5,102.1,890.7,101.9,889.6z M12.3,747.8c0,0-0.4-3.2-2-3.8s-2.5-0.5-3.5,0.3s-1.4,3.1-0.7,5.1c0.5,1.5,1.8,2.4,3.2,2.3
	c0.9-0.1,1.2,0,1.8-0.5S12.5,748.9,12.3,747.8L12.3,747.8z M186.4,636.6c0,0-0.4-3.2-2-3.8c-1.7-0.6-2.5-0.5-3.5,0.3
	s-1.4,3.2-0.7,5.1c0.5,1.5,1.8,2.4,3.2,2.3c0.9-0.1,1.2,0,1.8-0.5C185.6,639.5,186.6,637.7,186.4,636.6L186.4,636.6z M32.4,1054.3
	c0,0-0.8-6.5-4.1-7.6s-5-1-7.1,0.7s-2.8,6.3-1.4,10.2c0.9,3,3.5,4.9,6.4,4.7c1.8-0.3,2.4-0.1,3.5-1
	C30.8,1060.3,32.9,1056.5,32.4,1054.3L32.4,1054.3z M203.7,1171.8c0,0-0.6-5.2-3.3-6.2c-2.7-0.9-4-0.8-5.7,0.5s-2.2,5.1-1.1,8.2
	c0.7,2.4,2.8,3.9,5.1,3.8c1.5-0.2,1.9-0.1,2.8-0.8C202.4,1176.6,204.1,1173.5,203.7,1171.8L203.7,1171.8z M248.4,1291.2
	c0,0-1.1-9.6-6-11.3s-7.3-1.5-10.5,1s-4.1,9.3-2.1,15.1s6.7,7.2,9.4,6.8c2.7-0.4,3.6-0.1,5.2-1.5S249,1294.4,248.4,1291.2
	L248.4,1291.2z M182.1,1444.5c0,0-0.4-3.2-2-3.8c-1.7-0.6-2.5-0.5-3.5,0.3c-1.1,0.8-1.4,3.2-0.7,5.1c0.5,1.5,1.8,2.4,3.2,2.3
	c0.9-0.1,1.2,0,1.8-0.5S182.3,1445.6,182.1,1444.5z M279.6,1388.1c0,0-0.4-3.2-2-3.8s-2.5-0.5-3.5,0.3s-1.4,3.2-0.7,5.1
	c0.5,1.5,1.8,2.4,3.2,2.3c0.9-0.1,1.2,0,1.8-0.5S279.8,1389.2,279.6,1388.1z M222,1353c0,0-0.4-3.2-2-3.8s-2.5-0.5-3.5,0.3
	s-1.4,3.2-0.7,5.1c0.5,1.5,1.8,2.4,3.2,2.3c0.9-0.1,1.2,0,1.8-0.5C221.2,1355.9,222.3,1354.1,222,1353L222,1353z M82.7,1228.9
	c0,0-0.4-3.2-2-3.8s-2.5-0.5-3.5,0.3c-1.1,0.8-1.4,3.2-0.7,5.1c0.5,1.5,1.8,2.4,3.2,2.3c0.9-0.1,1.2,0,1.8-0.5
	C81.9,1231.8,82.9,1230,82.7,1228.9L82.7,1228.9z M82.8,1325.8c0,0-0.8-6.5-4.1-7.6c-3.3-1.2-5-1-7.1,0.7s-2.8,6.3-1.4,10.2
	c0.9,3,3.5,4.9,6.4,4.6c1.8-0.2,2.4-0.1,3.5-1S83.3,1327.9,82.8,1325.8L82.8,1325.8z M47.9,1413.1c0,0-0.4-3.2-2-3.8
	s-2.5-0.5-3.5,0.3s-1.4,3.2-0.7,5.1c0.5,1.5,1.8,2.4,3.2,2.3c0.9-0.1,1.2,0,1.8-0.5C47.1,1416.1,48.1,1414.2,47.9,1413.1
	L47.9,1413.1z M132.4,1160.1c0,0-0.4-3.2-2-3.8s-2.5-0.5-3.5,0.3s-1.4,3.2-0.7,5.1c0.5,1.5,1.8,2.4,3.2,2.3c0.9-0.1,1.2,0,1.8-0.5
	S132.7,1161.2,132.4,1160.1L132.4,1160.1z M195.2,855.6c0,0-1.1-9.5-6-11.3c-4.9-1.7-7.3-1.5-10.5,1c-3.1,2.5-4.1,9.3-2.1,15
	s6.7,7.2,9.3,6.9s3.6-0.1,5.2-1.5S195.9,858.8,195.2,855.6L195.2,855.6z M779.6,669.4c0,0-0.6-5.2-3.3-6.2s-4-0.8-5.7,0.5
	s-2.3,5.1-1.1,8.2c0.7,2.4,2.8,3.9,5.1,3.8c1.5-0.2,2-0.1,2.8-0.8S779.9,671.2,779.6,669.4z M824.2,788.8c0,0-1.1-9.5-6-11.3
	s-7.3-1.5-10.5,1s-4.1,9.3-2.1,15.1c2.1,5.8,6.7,7.2,9.3,6.9s3.6-0.1,5.2-1.5C821.8,797.7,824.9,792.1,824.2,788.8L824.2,788.8z
	 M797.2,1071.6c0,0-1.1-9.6-6-11.3s-7.3-1.5-10.5,1s-4.1,9.3-2.1,15.1s6.7,7.2,9.3,6.8c2.7-0.4,3.6-0.1,5.2-1.5
	C794.8,1080.4,797.9,1074.8,797.2,1071.6L797.2,1071.6z M785.6,1103.4c0,0-0.8-6.5-4.1-7.6s-5-1-7.1,0.7s-2.8,6.3-1.4,10.2
	c0.9,3,3.5,4.9,6.4,4.7c1.8-0.3,2.4-0.1,3.5-1C784,1109.4,786,1105.6,785.6,1103.4L785.6,1103.4z M686,1017.9c0,0-0.8-6.5-4.1-7.6
	s-5-1-7.1,0.7s-2.8,6.3-1.4,10.2c0.9,3,3.5,4.9,6.4,4.6c1.8-0.2,2.4-0.1,3.5-1S686.5,1020.1,686,1017.9L686,1017.9z M641.4,1196.9
	c0,0-1-6-5.5-7.1s-6.7-0.9-9.5,0.6s-3.7,5.9-1.9,9.5c1.9,3.6,6.1,4.6,8.5,4.3s3.2-0.1,4.7-0.9C639.3,1202.4,642,1198.9,641.4,1196.9
	L641.4,1196.9z M348.4,1013.4c0,0-0.8-6.5-4.1-7.6s-5-1-7.1,0.7s-2.8,6.3-1.4,10.2c0.9,3,3.5,4.9,6.4,4.7c1.8-0.3,2.4-0.1,3.5-1
	C346.9,1019.4,348.9,1015.6,348.4,1013.4L348.4,1013.4z M361.8,967.7c0,0-0.4-3.2-2-3.8s-2.5-0.5-3.5,0.3s-1.4,3.2-0.7,5.1
	c0.5,1.5,1.8,2.4,3.2,2.3c0.9-0.1,1.2,0,1.7-0.5S362,968.8,361.8,967.7L361.8,967.7z M345.2,1050.4c0,0-0.4-3.2-2-3.8
	c-1.7-0.6-2.5-0.5-3.5,0.3s-1.4,3.2-0.7,5.1c0.5,1.5,1.8,2.4,3.2,2.3c0.9-0.1,1.2,0,1.8-0.5S345.5,1051.4,345.2,1050.4L345.2,1050.4
	z M757.9,942c0,0-0.4-3.2-2-3.8s-2.5-0.5-3.5,0.3c-1.1,0.8-1.4,3.2-0.7,5.1c0.5,1.5,1.8,2.4,3.2,2.3c0.9-0.1,1.2,0,1.8-0.5
	S758.2,943.1,757.9,942L757.9,942z M835.3,937c0,0-0.4-3.2-2-3.8s-2.5-0.5-3.5,0.3c-1.1,0.8-1.4,3.2-0.7,5.1
	c0.5,1.5,1.8,2.4,3.2,2.3c0.9-0.1,1.2,0,1.8-0.5S835.5,938.1,835.3,937L835.3,937z M797.9,850.5c0,0-0.4-3.2-2-3.8s-2.5-0.5-3.5,0.3
	c-1.1,0.8-1.4,3.2-0.7,5.1c0.5,1.5,1.8,2.4,3.2,2.3c0.9-0.1,1.2,0,1.7-0.5S798.1,851.7,797.9,850.5L797.9,850.5z M508.5,884.7
	c0,0-0.8-6.5-4.1-7.6c-3.3-1.2-5-1-7.1,0.7s-2.8,6.3-1.4,10.2c0.9,3,3.5,4.9,6.4,4.7c1.8-0.2,2.4-0.1,3.5-1
	C506.9,890.7,509,886.9,508.5,884.7L508.5,884.7z M566.4,965.3c0,0-0.4-3.2-2-3.8s-2.5-0.5-3.5,0.3c-1.1,0.8-1.4,3.2-0.7,5.1
	c0.5,1.5,1.8,2.4,3.2,2.3c0.9-0.1,1.2,0,1.8-0.5C565.6,968.2,566.6,966.4,566.4,965.3L566.4,965.3z M454.2,766.2c0,0-0.4-3.2-2-3.8
	s-2.5-0.5-3.5,0.3s-1.4,3.2-0.7,5.1c0.5,1.5,1.8,2.4,3.2,2.3c0.9-0.1,1.2,0,1.8-0.5S454.4,767.3,454.2,766.2z M658.5,726.5
	c0,0-0.4-3.2-2-3.8s-2.5-0.5-3.5,0.3c-1.1,0.8-1.4,3.2-0.7,5.1c0.5,1.5,1.8,2.4,3.2,2.3c0.9-0.1,1.2,0,1.8-0.5
	C657.7,729.4,658.8,727.6,658.5,726.5L658.5,726.5z M361.3,804.5c0,0-0.4-3.2-2-3.8s-2.5-0.5-3.5,0.3s-1.4,3.2-0.7,5.1
	c0.5,1.5,1.8,2.4,3.2,2.3c0.9-0.1,1.2,0,1.8-0.5C360.5,807.4,361.6,805.6,361.3,804.5z M529.6,1090.2c0,0-0.4-3.2-2-3.8
	s-2.5-0.5-3.5,0.3c-1.1,0.8-1.4,3.2-0.7,5.1c0.5,1.5,1.8,2.4,3.2,2.3c0.9-0.1,1.2,0,1.8-0.5C528.7,1093.1,529.8,1091.3,529.6,1090.2
	L529.6,1090.2z M645,1097.3c0,0-0.4-3.2-2-3.8s-2.5-0.5-3.5,0.3c-1.1,0.8-1.4,3.2-0.7,5.1c0.5,1.5,1.8,2.4,3.2,2.3
	c0.9-0.1,1.2,0,1.8-0.5C644.2,1100.2,645.2,1098.4,645,1097.3L645,1097.3z M404.6,762.4c0,0-0.8-6.5-4.1-7.6s-5-1-7.1,0.7
	s-2.8,6.3-1.4,10.2c0.9,3,3.5,4.9,6.4,4.6c1.8-0.2,2.4-0.1,3.5-1S405.1,764.6,404.6,762.4L404.6,762.4z M574.8,679.4
	c0,0-0.8-6.5-4.1-7.6s-5-1-7.1,0.7s-2.8,6.3-1.4,10.2c0.9,3,3.5,4.9,6.4,4.6c1.8-0.2,2.4-0.1,3.5-1S575.3,681.6,574.8,679.4
	L574.8,679.4z M658.6,823.3c0,0-0.8-6.5-4.1-7.6s-5-1-7.1,0.7s-2.8,6.3-1.4,10.2c0.9,3,3.5,4.9,6.4,4.7c1.8-0.2,2.4-0.1,3.5-1
	S659.1,825.5,658.6,823.3L658.6,823.3z M484.5,1161c0,0-0.4-3.2-2-3.8s-2.5-0.5-3.5,0.3c-1.1,0.8-1.4,3.2-0.7,5.1
	c0.4,1.5,1.8,2.4,3.2,2.3c0.9-0.1,1.2,0,1.8-0.5S484.7,1162.1,484.5,1161L484.5,1161z M411,938.4c0,0-0.4-3.2-2-3.8
	s-2.5-0.5-3.5,0.3s-1.4,3.2-0.7,5.1c0.5,1.5,1.8,2.4,3.2,2.3c0.9-0.1,1.2,0,1.7-0.5S411.3,939.5,411,938.4L411,938.4z M623.8,910.8
	c0,0-0.4-3.2-2-3.8s-2.5-0.5-3.5,0.3c-1.1,0.8-1.4,3.2-0.7,5.1c0.4,1.5,1.8,2.4,3.2,2.3c0.9-0.1,1.2,0,1.8-0.5
	C623,913.7,624,911.8,623.8,910.8L623.8,910.8z M534.2,769c0,0-0.4-3.2-2-3.8c-1.7-0.6-2.5-0.5-3.5,0.3c-1.1,0.8-1.4,3.2-0.7,5.1
	c0.5,1.5,1.8,2.4,3.2,2.3c0.9-0.1,1.2,0,1.8-0.5C533.4,771.9,534.4,770.1,534.2,769L534.2,769z M456.9,655.6c0,0-0.4-3.2-2-3.8
	s-2.5-0.5-3.5,0.3c-1.1,0.8-1.4,3.1-0.7,5.1c0.4,1.5,1.8,2.4,3.2,2.3c0.9-0.1,1.2,0,1.8-0.5C456.1,658.6,457.1,656.7,456.9,655.6
	L456.9,655.6z M708.3,657.7c0,0-0.4-3.2-2-3.8s-2.5-0.5-3.5,0.3s-1.4,3.2-0.7,5.1c0.5,1.5,1.8,2.4,3.2,2.3c0.9-0.1,1.2,0,1.8-0.5
	C707.5,660.7,708.6,658.8,708.3,657.7L708.3,657.7z M554.3,1075.4c0,0-0.8-6.5-4.1-7.6s-5-1-7.1,0.7s-2.8,6.3-1.4,10.2
	c0.9,3,3.5,4.9,6.4,4.7c1.8-0.2,2.4-0.1,3.5-1S554.8,1077.6,554.3,1075.4L554.3,1075.4z M520.6,1038.1c0,0-1-8.7-5.5-10.2
	c-4.4-1.5-6.7-1.3-9.5,0.9s-3.7,8.4-1.9,13.6c1.9,5.2,6.1,6.6,8.5,6.2c2.4-0.3,3.2-0.1,4.7-1.3S521.2,1041,520.6,1038.1z
	 M725.6,1192.9c0,0-0.6-5.2-3.3-6.2s-4-0.8-5.7,0.5s-2.2,5.1-1.1,8.2c0.7,2.4,2.8,3.9,5.1,3.8c1.5-0.2,1.9-0.1,2.8-0.8
	S726,1194.7,725.6,1192.9L725.6,1192.9z M770.3,1312.3c0,0-1.1-9.6-6-11.3s-7.3-1.5-10.5,1s-4.1,9.3-2.1,15.1
	c2.1,5.8,6.7,7.2,9.3,6.9s3.6-0.1,5.2-1.5C767.9,1321.2,771,1315.6,770.3,1312.3L770.3,1312.3z M307.9,1491.3c0,0-0.4-3.2-2-3.8
	s-2.5-0.5-3.5,0.3s-1.4,3.2-0.7,5.1c0.5,1.5,1.8,2.4,3.2,2.3c0.9-0.1,1.2,0,1.8-0.5C307.1,1494.3,308.1,1492.4,307.9,1491.3
	L307.9,1491.3z M704,1465.7c0,0-0.4-3.2-2-3.8s-2.5-0.5-3.5,0.3c-1.1,0.8-1.4,3.2-0.7,5.1c0.5,1.5,1.8,2.4,3.2,2.3
	c0.9-0.1,1.2,0,1.8-0.5C703.2,1468.6,704.3,1466.7,704,1465.7L704,1465.7z M781.4,1460.7c0,0-0.4-3.2-2-3.8s-2.5-0.5-3.5,0.3
	c-1.1,0.8-1.4,3.2-0.7,5.1c0.5,1.5,1.8,2.4,3.2,2.3c0.9-0.1,1.2,0,1.8-0.5S781.6,1461.7,781.4,1460.7L781.4,1460.7z M743.9,1374.2
	c0,0-0.4-3.2-2-3.8s-2.5-0.5-3.5,0.3c-1.1,0.8-1.4,3.2-0.7,5.1c0.5,1.5,1.8,2.4,3.2,2.3c0.9-0.1,1.2,0,1.7-0.5
	S744.2,1375.3,743.9,1374.2L743.9,1374.2z M454.6,1408.3c0,0-0.8-6.5-4.1-7.6s-5-1-7.1,0.7s-2.8,6.3-1.4,10.2c0.9,3,3.5,4.9,6.4,4.7
	c1.8-0.2,2.4-0.1,3.5-1C453,1414.3,455.1,1410.5,454.6,1408.3L454.6,1408.3z M512.4,1488.8c0,0-0.4-3.2-2-3.8
	c-1.7-0.6-2.5-0.5-3.5,0.3s-1.4,3.2-0.7,5.1c0.5,1.5,1.8,2.4,3.2,2.3c0.9-0.1,1.2,0,1.8-0.5S512.6,1489.9,512.4,1488.8L512.4,1488.8
	z M400.2,1289.8c0,0-0.4-3.2-2-3.8s-2.5-0.5-3.5,0.3s-1.4,3.2-0.7,5.1c0.5,1.5,1.8,2.4,3.2,2.3c0.9-0.1,1.2,0,1.8-0.5
	S400.4,1290.9,400.2,1289.8z M604.6,1250.1c0,0-0.4-3.2-2-3.8s-2.5-0.5-3.5,0.3c-1.1,0.8-1.4,3.2-0.7,5.1c0.5,1.5,1.8,2.4,3.2,2.3
	c0.9-0.1,1.2,0,1.8-0.5S604.8,1251.1,604.6,1250.1L604.6,1250.1z M307.4,1328.1c0,0-0.4-3.2-2-3.8s-2.5-0.5-3.5,0.3
	s-1.4,3.2-0.7,5.1c0.5,1.5,1.8,2.4,3.2,2.3c0.9-0.1,1.2,0,1.8-0.5C306.6,1331,307.6,1329.1,307.4,1328.1L307.4,1328.1z M350.7,1286
	c0,0-0.8-6.5-4.1-7.6s-5-1-7.1,0.7s-2.8,6.3-1.4,10.2c0.9,3,3.5,4.9,6.4,4.6c1.8-0.2,2.4-0.1,3.5-1
	C349.1,1291.9,351.2,1288.1,350.7,1286L350.7,1286z M520.9,1203c0,0-0.8-6.5-4.1-7.6c-3.3-1.2-5-1-7.1,0.7s-2.8,6.3-1.4,10.2
	c0.9,3,3.5,4.9,6.4,4.7c1.8-0.3,2.4-0.1,3.5-1S521.4,1205.1,520.9,1203L520.9,1203z M604.7,1346.9c0,0-0.8-6.5-4.1-7.6s-5-1-7.1,0.7
	s-2.8,6.3-1.4,10.2c0.9,3,3.5,4.9,6.4,4.7c1.8-0.2,2.4-0.1,3.5-1S605.2,1349.1,604.7,1346.9L604.7,1346.9z M357.1,1461.9
	c0,0-0.4-3.2-2-3.8s-2.5-0.5-3.5,0.3c-1.1,0.8-1.4,3.1-0.7,5.1c0.5,1.5,1.8,2.4,3.2,2.3c0.9-0.1,1.2,0,1.8-0.5
	S357.3,1463,357.1,1461.9z M569.9,1434.2c0,0-0.4-3.2-2-3.8s-2.5-0.5-3.5,0.3c-1.1,0.8-1.4,3.2-0.7,5.1c0.4,1.5,1.8,2.4,3.2,2.3
	c0.9-0.1,1.2,0,1.8-0.5C569.1,1437.2,570.1,1435.3,569.9,1434.2L569.9,1434.2z M480.2,1292.5c0,0-0.4-3.2-2-3.8s-2.5-0.5-3.5,0.3
	s-1.4,3.2-0.7,5.1c0.5,1.5,1.8,2.4,3.2,2.3c0.9-0.1,1.2,0,1.8-0.5S480.5,1293.6,480.2,1292.5L480.2,1292.5z M402.9,1179.2
	c0,0-0.4-3.2-2-3.8c-1.7-0.6-2.5-0.5-3.5,0.3c-1.1,0.8-1.4,3.2-0.7,5.1c0.5,1.5,1.8,2.4,3.2,2.3c0.9-0.1,1.2,0,1.8-0.5
	S403.2,1180.3,402.9,1179.2z M654.4,1181.3c0,0-0.4-3.2-2-3.8s-2.5-0.5-3.5,0.3c-1.1,0.8-1.4,3.2-0.7,5.1c0.5,1.5,1.8,2.4,3.2,2.3
	c0.9-0.1,1.2,0,1.8-0.5C653.6,1184.3,654.6,1182.4,654.4,1181.3L654.4,1181.3z M436.3,1066.8c0,0-0.4-3.2-2-3.8s-2.5-0.5-3.5,0.3
	s-1.4,3.2-0.7,5.1c0.5,1.5,1.8,2.4,3.2,2.3c0.9-0.1,1.2,0,1.7-0.5S436.5,1067.9,436.3,1066.8L436.3,1066.8z M294.9,1169.4
	c0,0-1.1-9.6-6-11.3c-4.9-1.7-7.3-1.5-10.5,1s-4.1,9.3-2.1,15.1c2.1,5.8,6.7,7.2,9.3,6.9s3.6-0.1,5.2-1.5
	C292.5,1178.3,295.6,1172.7,294.9,1169.4L294.9,1169.4z M390.1,1088c0,0-1.1-9.6-6-11.3c-4.9-1.7-7.3-1.5-10.5,1s-4.1,9.3-2.1,15.1
	c2.1,5.8,6.7,7.2,9.3,6.9s3.6-0.1,5.2-1.5S390.8,1091.2,390.1,1088L390.1,1088z M390.1,868c0,0-1.1-9.5-6-11.3
	c-4.9-1.7-7.3-1.5-10.5,1s-4.1,9.3-2.1,15.1c2.1,5.8,6.7,7.2,9.3,6.9s3.6-0.1,5.2-1.5S390.8,871.3,390.1,868L390.1,868z M379,670.9
	c0,0-1.1-9.5-6-11.3s-7.4-1.5-10.5,1s-4.1,9.3-2.1,15.1c2.1,5.8,6.7,7.2,9.4,6.9c2.7-0.4,3.6-0.1,5.2-1.5S379.7,674.1,379,670.9
	L379,670.9z M717.1,876.8c0,0-1.1-9.5-6-11.3s-7.3-1.5-10.5,1s-4.1,9.3-2.1,15.1c2.1,5.8,6.7,7.2,9.3,6.8s3.6-0.1,5.2-1.5
	C714.7,885.6,717.7,880,717.1,876.8z"/>
<path class="st2" d="M1241.4,817.6c0,0-18.1-26.2-20-48.3s-17.7-40.5-33.1-53.5c-15.4-12.9-19.6-21.5-34-37.4s-30.9-21.5-48.6-26.7
	s-51.1-7.4-67.8-25s-34.1-41.6-54.5-46.5s-70.5-10.3-99-33.1S838.7,495,838.7,495s-4.9,19.5,17.3,62.6s46.4,66.9,46.4,66.9
	s-12.7-9.3-35.9-17c-23.3-7.6-35.8-8.9-50.7-28.3s-31.6-59.2-71.1-92.5s-93.5-41.3-93.5-41.3s32.3,19.2,39.2,47.3s9.8,45.8,19,69
	s21.9,35,21.9,35s-43.7-33.5-85.4-54.8s-64.7-24-99.4-58.8s-52.7-99.4-52.7-99.4s-7.9,22.8-3.2,75.6c4.7,52.8,48.7,111.2,48.7,111.2
	s-49-39.1-79.3-90.6c-30.4-51.5-53.9-70.5-66.6-120.5s-39-80.5-78.6-100.2s-68.1-16.6-68.1-16.6s58.5,34.2,72.1,88.3
	s-2.9,85.2,32.3,175.1s114.6,173.4,114.6,173.4s-26.9,0.7-62.2-32.7S350.9,576,350.9,576s10.1,62.6,34.7,104.5s37.7,41.7,60.9,64.3
	c23.3,22.6,32,42.7,61.3,51.7c29.3,9,73.6,6.6,101.1,21.4c27.5,14.8,43.7,47.6,43.7,47.6s-29.1-34.1-56-36.1
	c-26.8-2-52.6,18.1-52.6,18.1s46-12.2,77,36.6s38.8,84.3,77.4,125.2c38.5,40.8,81.8,48.7,104.5,47.8c22.7-0.9,34.6-1.1,53.1,11.3
	s23,21.3,23,21.3s-17.4-14.3-38.2-17.2c-20.8-2.9-36.8,2.3-36.8,2.3s29.1,4.6,56,33.5c27,28.9,59.1,59.1,98.2,43.8
	c39.1-15.3,72.2-14.3,112.9-7.6c40.8,6.6,70.1,3.5,107-16.4s52.3-49.9,82.9-73.3s41.1-53.1,26.5-93.3s-39.5-81.4-40.5-103.8
	S1250.4,833.4,1241.4,817.6L1241.4,817.6z M670.4,482.5c4.3,11.4-6.4,16.5-16.7,10.5c-10.2-6-14.5-16.8-24.7-29.3
	c-10.2-12.6-48.5-19.1-48.5-19.1s30.7,0,55.6,10.6C661.1,465.6,670.4,482.5,670.4,482.5L670.4,482.5z M588.8,884.5
	c2.3,6.1,3.2,15.2-3,14.8s-13.3-5.7-31.9-22.2c-18.6-16.5-59.1-6.3-59.1-6.3s11.8-9.3,47.1-8S588.8,884.5,588.8,884.5z"/>
<path class="st3" d="M1064.3,688.8c-2.5-1.8-5.2-3.4-8-4.8c-29.2-14.3-49.8-17.8-67.4-25.6s-35.4-21.3-35.4-21.3
	c8.8,9.1,15.4,20.1,19.2,32.1c6.2,19.7,7.2,25.9,7.2,25.9s-30.8-19.5-64.2-21.4s-72.5,0-92.1-10C804.1,653.6,785,629,785,629
	s5.2,19.1,19.5,49.8s28.5,44,28.5,44s-32-30-74.9-39.6s-79-18.4-110.8-39.6c-31.8-21.2-55.2-61.6-55.2-61.6s4.1,40,26.8,78.5
	s50.1,60.8,50.1,60.8s-40.7-7-71.3-33.6c-30.7-26.6-34.6-43.6-61.7-59.2c-27.1-15.6-45.5-15.4-45.5-15.4s41.9,18.9,53,46.3
	c11.1,27.5,22.4,52.5,54.9,75.6s50.4,27.8,50.4,27.8s-32.1-6.1-55.8-3.7c-23.8,2.4-32.3,7.2-32.3,7.2s87.9,11.6,126.3,58.5
	c38.4,46.9,52.1,89.4,52.1,89.4s-14.7-13.1-35.8-14.7c-21.1-1.6-32.9,2.5-32.9,2.5s35.5,9.7,63.6,41.3
	c11.9,13.4,28.7,24.6,45.5,33.1c-2.6,1.1-5.3,2.1-8,2.9c-18.1,5.3-39.9-10.5-39.9-10.5c6.3,10.7,13.5,21,21.3,30.7
	c12,14.5,30.3,19.5,30.3,19.5s-7.1,6.2-37.5,2.5c-30.2-3.7-50.6-15.7-50.8-15.9c1.1,1.2,2.3,2.5,3.4,3.7
	c38.5,40.8,81.8,48.7,104.5,47.8s34.6-1.1,53.1,11.3s23,21.3,23,21.3s-17.4-14.3-38.2-17.2c-20.8-2.9-36.8,2.3-36.8,2.3
	s29.1,4.6,56,33.5c27,28.9,59.1,59.1,98.2,43.8s72.2-14.3,112.9-7.6c40.8,6.6,70.1,3.5,107-16.4s52.3-49.9,82.9-73.3
	s41.1-53.1,26.5-93.3s-39.5-81.3-40.5-103.7s3.4-24.6-5.7-40.3c0,0-18.1-26.2-20-48.3c-0.8-10-4.6-19.3-9.8-27.6l0,0
	c-6.3-10.1-14.8-18.8-23.3-25.9c-15.4-12.9-19.6-21.5-34-37.4s-30.9-21.5-48.6-26.7c-6.8-2-15.9-3.5-25.5-5.7l0,0
	c32.6,11.7,46.3,27,42.1,32.9c-15.4,21.7-66.6-14.4-83.1-23.2c0,0,1.8,2.1,12.9,14.5C1063.3,682.7,1064.4,688.8,1064.3,688.8
	L1064.3,688.8z"/>
<path class="st4" d="M937.5,776c0,0-35.6-34.4-60.4-44.5c-24.8-10.1-33-13-33-13s20,20.7,27.5,32.6c4.4,6.9,7.9,14.4,10.1,22.3
	c0,0-27.1-21.9-63.2-20.8c-36.1,1.1-49.2,7.6-74.9-2c-25.6-9.6-51.1-38.9-51.1-38.9s13.3,44.5,45.3,74.2
	c32.1,29.7,53.9,51.5,53.9,51.5s-21.1-12.5-36.2-17.3c-9.5-2.9-19.5-4.2-29.4-3.8c0,0,31.4,23.2,60,63.7s49.7,63.9,80.6,77.2
	c30.9,13.3,62.4,4.1,62.4,4.1L937.5,776z"/>
<path class="st5" d="M1176.3,1085c0,0-42.2,26.8-65.6,27.2c-23.3,0.4-42.7-16.6-63.5-21.2s-63.5-8.6-84.7-14.7
	c-21.1-6.1-46.6-19.9-65-39.9s-35.2-73.7-41.1-101c-5.8-27.3-6.4-43.7-7.8-70.4s4.1-45.1,17.7-57.2c13.6-12.1,28.2-23.6,31.9-44.9
	c3.7-21.3,6.8-40,21.8-47.2s35.9-6.4,60.3-6.9c24.4-0.5,33.9-8.3,57.1-5.2c23.2,3.1,31.1-0.8,57.9,0.6c26.8,1.4,57.6,19.2,73.1,50.8
	s19.6,27.2,33.4,40.9s25.7,37.8,21.7,56.9s-6.1,30.3,1.8,45.4c7.9,15.1,31.3,53.4,37.8,76.4c6.5,22.9-8.4,56.5-23.8,68.6
	s-26.8,15.8-38,23.5C1190.3,1074.4,1176.3,1085,1176.3,1085z"/>
<path class="st6" d="M954.5,863.5c0,0-25.1-19.9-42-11.4s-22.7,15.3-25.1,29.1c-2.5,13.8,10.9,32.7,29.7,41.2
	c18.8,8.4,34.3,0.1,40.5-7.6s9.1-9.4,10.2-16.8C968.8,890.6,963.7,869.5,954.5,863.5z"/>
<path class="st7" d="M940.3,854.8c-8.5-4-19.2-7.1-27.8-2.8c-16.8,8.5-22.7,15.3-25.1,29.1c-2.3,13,9.4,30.6,26.5,39.6
	c-7-7.3-18-21.7-14.2-36.8C905.1,862.3,919.4,852.8,940.3,854.8z"/>
<path class="st6" d="M1046.6,951.7c0,0,18.3,12,29.2,5.2c10.9-6.8,14.4-11.8,15.3-21.3c0.8-9.5-9.4-21.5-22.7-26.1
	c-13.3-4.6-23.3,2-27,7.6s-5.6,7-5.8,12C1035.2,934.2,1039.9,948.2,1046.6,951.7z"/>
<path class="st7" d="M1056.7,956.7c6,2.2,13.5,3.6,19.1,0.2c10.9-6.8,14.4-11.8,15.3-21.3c0.8-9-8.3-20.2-20.5-25.3
	c5.2,4.5,13.6,13.6,11.9,24.1C1080.2,949.5,1071,956.8,1056.7,956.7z"/>
<path class="st7" d="M1188.1,1060.5c0,0,0.8-7.3-2.9-9.5c-3.7-2.2-5.7-2.5-8.7-1.3s-5,6.1-4.3,10.7c0.3,3.5,3,6.3,6.4,6.9
	c2.2,0.2,2.9,0.6,4.5-0.1C1184.6,1066.5,1188.1,1063,1188.1,1060.5L1188.1,1060.5z M975.5,988.6c0,0,1-9.9-4-12.9s-7.8-3.4-11.8-1.7
	s-6.8,8.3-5.8,14.6c0.9,6.3,5.7,9,8.7,9.3s4,0.8,6.1-0.1S975.5,992,975.5,988.6L975.5,988.6z M990.1,1016.8c0,0,0.5-4.9-2-6.4
	s-3.9-1.7-5.9-0.8c-2,0.8-3.4,4.1-2.9,7.3c0.2,2.4,2,4.3,4.3,4.6c1.5,0.2,2,0.4,3-0.1C987.8,1020.9,990.1,1018.5,990.1,1016.8
	L990.1,1016.8z M1027.2,786.5c0,0,0.3-2.5-1-3.2c-1.2-0.7-1.9-0.8-2.9-0.4c-1,0.4-1.7,2.1-1.5,3.6c0.1,1.2,1,2.1,2.2,2.3
	c0.8,0.1,1,0.2,1.5,0C1026.4,788.4,1027,787.5,1027.2,786.5L1027.2,786.5z M1075.3,908.5c0,0,0.3-2.5-1-3.2s-1.9-0.8-2.9-0.4
	c-1,0.4-1.7,2.1-1.5,3.6c0.1,1.2,1,2.1,2.2,2.3c0.8,0.1,1,0.2,1.5,0C1074.4,910.3,1075,909.4,1075.3,908.5L1075.3,908.5z
	 M897.7,888.1c0,0,0.3-2.5-1-3.2s-1.9-0.8-2.9-0.4s-1.7,2.1-1.5,3.6c0.1,1.2,1,2.1,2.2,2.3c0.8,0.1,1,0.2,1.5,0
	C896.8,889.9,897.4,889.1,897.7,888.1L897.7,888.1z M1118.8,850.6c0,0,0.5-4.9-2-6.4s-3.9-1.7-5.9-0.8c-2,0.8-3.4,4.1-2.9,7.3
	c0.2,2.4,2,4.3,4.3,4.6c1.5,0.2,2,0.4,3-0.1C1116.5,854.8,1118.8,852.4,1118.8,850.6L1118.8,850.6z M923.2,756.8c0,0,0.5-4.9-2-6.4
	s-3.9-1.7-5.9-0.8c-2,0.8-3.4,4.1-2.9,7.3c0.2,2.4,2,4.3,4.3,4.6c1.5,0.2,2,0.4,3-0.1C920.8,760.9,923.2,758.5,923.2,756.8
	L923.2,756.8z M967.5,1022.9c0,0,0.3-2.5-1-3.2c-1.2-0.7-1.9-0.8-2.9-0.4s-1.7,2.1-1.5,3.6c0.1,1.2,1,2.1,2.2,2.3
	c0.8,0.1,1,0.2,1.5,0C966.6,1024.7,967.3,1023.9,967.5,1022.9L967.5,1022.9z M1135.7,779.1c0,0,0.3-2.5-1-3.2s-1.9-0.8-2.9-0.4
	c-1,0.4-1.7,2.1-1.5,3.6c0.1,1.2,1,2.1,2.2,2.3c0.8,0.1,1,0.2,1.5,0C1134.8,780.9,1135.4,780.1,1135.7,779.1L1135.7,779.1z
	 M962.8,769.2c0,0,0.3-2.5-1-3.2c-1.2-0.7-1.9-0.8-2.9-0.4c-1,0.4-1.7,2.1-1.5,3.6c0.1,1.2,1,2.1,2.2,2.3c0.8,0.1,1,0.2,1.5,0
	C961.9,771,962.5,770.1,962.8,769.2L962.8,769.2z M1019.2,937.7c0,0,0.3-2.5-1-3.2c-1.2-0.7-1.9-0.8-2.9-0.4s-1.7,2.1-1.5,3.6
	c0.1,1.2,1,2.1,2.2,2.3c0.8,0.1,1,0.2,1.5,0C1018.3,939.6,1018.9,938.7,1019.2,937.7L1019.2,937.7z M986.2,867.2c0,0,0.5-4.9-2-6.4
	s-3.9-1.7-5.9-0.8c-2,0.8-3.4,4.1-2.9,7.3c0.2,2.4,2,4.3,4.3,4.6c1.5,0.2,2,0.4,3-0.1C983.9,871.3,986.2,868.9,986.2,867.2
	L986.2,867.2z M1223.4,893.8c0.6,1.5,1.3,2.9,2.1,4.5l0.6,1.1c-0.2,0.2-0.4,0.3-0.6,0.4c-0.5,0.2-0.8,0.1-1.5,0
	c-1.2-0.2-2.1-1.1-2.2-2.3c-0.2-1.6,0.5-3.2,1.5-3.6L1223.4,893.8L1223.4,893.8z M1242.5,968.5c0,0,0.3-2.5-1-3.2
	c-1.2-0.7-1.9-0.8-2.9-0.4c-1,0.4-1.7,2.1-1.5,3.6c0.1,1.2,1,2.1,2.2,2.3c0.8,0.1,1,0.2,1.5,0S1242.5,969.4,1242.5,968.5
	L1242.5,968.5z M1178.8,957.3c0,0,0.3-2.5-1-3.2c-1.2-0.7-1.9-0.8-2.9-0.4c-1,0.4-1.7,2.1-1.5,3.6c0.1,1.2,1,2.1,2.2,2.3
	c0.8,0.1,1,0.2,1.5,0C1178,959.1,1178.6,958.3,1178.8,957.3L1178.8,957.3z M908.6,979.5c-5.2-0.4-10.4,0.3-15.3,2.1
	c-8.6,3-0.5,4.3,9.5,3.8C912.8,984.8,923.5,983.7,908.6,979.5L908.6,979.5z M851.2,902.3c-0.2-1.9-0.4-3.8-0.6-5.7
	c0.3,0.1,0.6,0.3,0.9,0.5c1.2,0.7,1,3.2,1,3.2C852.4,901.1,851.9,901.8,851.2,902.3z M1107.1,999.5c0,0,0.5-4.9-2-6.4
	s-3.9-1.7-5.9-0.8c-2,0.8-3.4,4.1-2.9,7.3c0.2,2.4,2,4.3,4.3,4.6c1.5,0.2,2,0.4,3-0.1C1104.8,1003.6,1107.1,1001.2,1107.1,999.5
	L1107.1,999.5z"/>
<path class="st6" d="M1033.8,1008.1c0,0-15.2-2.9-20.5,4.5s-6.2,11.6-4.2,18.1s12,11.5,21.9,10.9c9.9-0.6,14.7-7.6,15.6-12.3
	c0.9-4.7,1.7-6,0.6-9.4C1046,1016.5,1039.2,1008.6,1033.8,1008.1z"/>
<path class="st7" d="M1025.9,1007.6c-4.5,0.2-9.8,1.3-12.5,5.1c-5.3,7.4-6.2,11.6-4.2,18.1c1.9,6.1,10.9,10.9,20.2,11
	c-4.6-1.5-12.6-5.2-14.3-12.5C1012.5,1018.7,1016.5,1011.4,1025.9,1007.6z"/>
<path class="st6" d="M1062.1,781.3c0,0,1-15.4-6.9-19.8c-8-4.4-12.3-4.8-18.4-2c-6.2,2.8-10,13.3-8.2,23c1.8,9.8,9.3,13.7,14.1,14
	s6.2,1,9.4-0.6C1055.2,794.4,1062.3,786.7,1062.1,781.3z"/>
<path class="st7" d="M1061.7,773.3c-0.7-4.5-2.4-9.6-6.5-11.8c-8-4.4-12.3-4.8-18.4-2c-5.8,2.6-9.6,12.1-8.5,21.4
	c1-4.8,3.7-13.1,10.7-15.7C1049.1,761.4,1056.8,764.5,1061.7,773.3z"/>
<path class="st7" d="M1163.1,913.6c0,0,1-9.2-3.7-12s-7.2-3.2-11-1.6s-6.3,7.7-5.5,13.6c0.8,5.9,5.3,8.4,8.1,8.7
	c2.8,0.3,3.7,0.7,5.7-0.1S1163.1,916.8,1163.1,913.6z"/>
<path class="st7" d="M919.7,827.1c0,0,1-9.2-3.7-12s-7.2-3.2-11-1.6s-6.3,7.7-5.5,13.6c0.8,5.9,5.3,8.4,8.1,8.7s3.7,0.7,5.7-0.1
	S919.7,830.3,919.7,827.1z"/>
<path class="st6" d="M1171.3,857.6c0,0,5.8-18.5-2.5-26.2c-8.4-7.7-13.6-9.5-21.9-7.9s-16.1,13.2-16.9,25.6
	c-0.7,12.4,7.3,19.4,13,21.2s7.3,3.1,11.6,2.1S1169.9,864.2,1171.3,857.6z"/>
<path class="st7" d="M1173.2,847.7c0.5-5.7-0.1-12.4-4.4-16.3c-8.4-7.6-13.6-9.5-21.9-7.9c-7.9,1.5-15.3,11.9-16.7,23.5
	c2.6-5.5,8.4-14.9,17.7-16C1161.4,829.5,1169.8,835.5,1173.2,847.7z"/>
<path class="st7" d="M1052.1,731.4c0,0-14.2-4.1-28.9-3.1c-14.7,1-13.3-0.7-30.9-1.3s-39.5,0.4-39.5,0.4s-17.1-1.5,1.4-4.7
	c18.4-3.1,31.9-3.2,40.1-4s23.8-0.4,34-1.2c10.2-0.8,15.3-4.4,30.8-2.7s23.8,0.8,40.8,2.6s34.6,9.9,41.4,21
	c6.9,11.1,13.2,15.1,18.7,27.6c2.3,4.9,5.2,9.4,8.7,13.5l0,0c3.1,4,10,17.5,5.2,12.6c-3-3-6.5-5.5-10.3-7.4c-1.5-1.7-3.5-4-6.5-7.3
	c-10.1-11.1-14.2-16.1-25.8-21.8c-11.6-5.7-8.7-6.6-24.4-9.9s-21.8-3.7-28.4-7.5C1072,734.3,1060,734.4,1052.1,731.4z"/>
<path class="st6" d="M1208,972.7c0,0-0.8-15.4-9.3-18.8c-8.4-3.4-12.7-3.3-18.6,0.2c-5.8,3.5-8.4,14.4-5.4,23.9s10.9,12.4,15.7,12.2
	c4.8-0.2,6.3,0.3,9.3-1.7C1202.9,986.4,1208.8,977.9,1208,972.7z"/>
<path class="st7" d="M1206.7,964.8c-1.2-4.4-3.6-9.2-7.9-11c-8.4-3.4-12.7-3.3-18.6,0.2c-5.5,3.3-8.1,13.2-5.9,22.2
	c0.4-4.8,2.1-13.4,8.8-16.9C1192.7,954.4,1200.7,956.5,1206.7,964.8z"/>
<path class="st8" d="M1567.4,1518.2H35.2c-21.4,0-38.7-17.3-38.7-38.7V34.3c0-21.4,17.3-38.7,38.7-38.7h1532.2
	c21.4,0,38.7,17.3,38.7,38.7v1445.2C1606.1,1500.9,1588.8,1518.2,1567.4,1518.2z"/>
</svg>
